<?xml version="1.0" encoding="UTF-8"?>
<svg xmlns="http://www.w3.org/2000/svg" onmouseup="{ if(window.parent.document.onmouseup) window.parent.document.onmouseup(arguments[0]);}" viewBox="0 0 37 37" height="37" width="37"><path data-cppathid="10000" fill="#00a0d2" transform="translate(-3.375 -3.375)" d="M21.875,3.375a18.5,18.5,0,1,0,18.5,18.5A18.509,18.509,0,0,0,21.875,3.375Zm1.868,29.618H20.007V29.257h3.736Zm-.018-5.6h-3.7c0-5.959,5.55-5.532,5.55-9.232a3.716,3.716,0,0,0-3.7-3.709,3.754,3.754,0,0,0-3.7,3.691h-3.7a7.4,7.4,0,0,1,14.8.009C29.275,22.773,23.725,23.3,23.725,27.389Z" data-name="Help Icon" id="Help_Icon"/></svg>