<?xml version="1.0" encoding="UTF-8"?>
<svg xmlns="http://www.w3.org/2000/svg" onmouseup="{ if(window.parent.document.onmouseup) window.parent.document.onmouseup(arguments[0]);}" xml:space="preserve" style="enable-background:new 0 0 1280 720" viewBox="0 0 1280 720" y="0" x="0" id="Warum_Xampp" version="1.1"><style>.st0{fill:#e5ed74}.st1{fill:none;stroke-width:4}.st1,.st2,.st5{stroke:#000;stroke-miterlimit:10}.st2{fill:#e2e2e2;stroke-width:5}.st5{fill:#6ddde2}.st7{fill:none;stroke-width:5}.st7,.st8,.st9{stroke:#000;stroke-miterlimit:10}.st8{fill:#fff;stroke-width:5}.st9{fill:none}.st10{fill:#fb7a24}</style><path data-cppathid="10000" d="M698.4 261.3h218.8v218.8H698.4z" class="st0"/><path data-cppathid="10001" d="M321.8 371.1h35.1" class="st1"/><path data-cppathid="10002" d="m325.3 383-20.8-11.9 20.8-12zM353.4 383l20.8-11.9-20.8-12z"/><path data-cppathid="10003" d="M387.4 262.3h217.4v217.4H387.4z" class="st0" id="Color_00000171703407453969409630000014925665814593220233_"/><g id="Frontend_blau"><g id="Website_Grün_00000108290860841620100290000011206011949350451876_"><path data-cppathid="10004" d="M1008.9 260.5h221v221h-221z" class="st2" id="Hintergrund_00000010300894485700464780000002989043935693187002_"/><g id="Website_Farben_grün_00000172424778034571418120000016065368298454721419_"><path data-cppathid="10005" d="M1025.8 378.4h54v30.9h-54zM1093.1 378.4h54v30.9h-54zM1159.4 378.4h54v30.9h-54zM1140.9 461.3h-43.1c-7 0-12.7-5.7-12.7-12.7 0-7 5.7-12.7 12.7-12.7h43.1c7 0 12.7 5.7 12.7 12.7.1 7-5.6 12.7-12.7 12.7zM1010.9 290.4h216.6v61.9h-216.6z" class="st5"/></g></g><g id="Website_Elemente_00000121265431192329311880000008559793278619635339_"><path data-cppathid="10006" d="M1020.3 273.4h.8v5.3h2.5v.6h-3.3v-5.9zM1029.2 276.3c0 2-1.2 3.1-2.8 3.1-1.6 0-2.7-1.2-2.7-3 0-1.9 1.2-3.1 2.8-3.1 1.6 0 2.7 1.2 2.7 3zm-4.6.1c0 1.3.7 2.4 1.9 2.4s1.9-1.1 1.9-2.5c0-1.2-.6-2.4-1.9-2.4-1.3 0-1.9 1.2-1.9 2.5zM1034.7 279.1c-.3.1-1 .3-1.8.3-.9 0-1.6-.2-2.2-.8-.5-.5-.8-1.3-.8-2.2 0-1.8 1.2-3.1 3.2-3.1.7 0 1.2.2 1.5.3l-.2.6c-.3-.1-.7-.3-1.3-.3-1.4 0-2.4.9-2.4 2.4s.9 2.4 2.3 2.4c.5 0 .8-.1 1-.2v-1.8h-1.2v-.6h2v3zM1041 276.3c0 2-1.2 3.1-2.8 3.1-1.6 0-2.7-1.2-2.7-3 0-1.9 1.2-3.1 2.8-3.1 1.7 0 2.7 1.2 2.7 3zm-4.6.1c0 1.3.7 2.4 1.9 2.4s1.9-1.1 1.9-2.5c0-1.2-.6-2.4-1.9-2.4-1.3 0-1.9 1.2-1.9 2.5zM1119.3 273.6v2.5h2.9v-2.5h.8v6h-.8v-2.8h-2.9v2.8h-.8v-6h.8zM1128.2 277.4c0 1.6-1.1 2.3-2.1 2.3-1.2 0-2-.8-2-2.2 0-1.4.9-2.3 2.1-2.3 1.1 0 2 .9 2 2.2zm-3.4 0c0 .9.5 1.6 1.3 1.6.7 0 1.3-.7 1.3-1.7 0-.7-.4-1.6-1.3-1.6-.9.1-1.3.9-1.3 1.7zM1129.2 276.4v-1.2h.7v.7c.2-.4.6-.8 1.3-.8.6 0 1 .4 1.2.9.1-.2.3-.4.5-.6.3-.2.5-.3.9-.3.6 0 1.4.4 1.4 1.9v2.5h-.8v-2.4c0-.8-.3-1.3-.9-1.3-.4 0-.8.3-.9.7 0 .1-.1.2-.1.4v2.6h-.8V277c0-.7-.3-1.2-.9-1.2-.5 0-.8.4-1 .8 0 .1-.1.2-.1.4v2.6h-.8v-3.2zM1137 277.6c0 1.1.7 1.5 1.5 1.5.6 0 .9-.1 1.2-.2l.1.6c-.3.1-.7.3-1.4.3-1.3 0-2.1-.9-2.1-2.2s.8-2.3 2-2.3c1.4 0 1.8 1.2 1.8 2v.4h-3.1zm2.2-.6c0-.5-.2-1.3-1.1-1.3-.8 0-1.1.7-1.2 1.3h2.3z"/><g><path data-cppathid="10007" d="M1151.9 274.2v3.5c0 1.3.6 1.9 1.4 1.9.9 0 1.4-.6 1.4-1.9v-3.5h.8v3.5c0 1.8-1 2.6-2.3 2.6-1.2 0-2.1-.7-2.1-2.5v-3.5h.8zm.2-.9c0-.2.2-.4.4-.4s.4.2.4.4-.2.5-.4.5-.4-.2-.4-.5zm1.7 0c0-.2.2-.4.4-.4s.4.2.4.4-.2.5-.4.5c-.3 0-.4-.2-.4-.5zM1156.8 280.2V273.9h.8v2.7c.3-.5.8-.8 1.5-.8 1.1 0 1.8.9 1.8 2.2 0 1.5-1 2.3-1.9 2.3-.6 0-1.1-.2-1.4-.8v.7h-.8zm.8-1.7v.3c.2.5.6.9 1.2.9.8 0 1.3-.7 1.3-1.6 0-.9-.4-1.6-1.3-1.6-.5 0-1 .4-1.2 1v1zM1162.3 278.2c0 1.1.7 1.5 1.5 1.5.6 0 .9-.1 1.2-.2l.1.6c-.3.1-.7.3-1.4.3-1.3 0-2.1-.9-2.1-2.2 0-1.3.8-2.3 2-2.3 1.4 0 1.8 1.2 1.8 2v.4h-3.1zm2.3-.6c0-.5-.2-1.3-1.1-1.3-.8 0-1.1.7-1.2 1.3h2.3zM1166.3 277.2v-1.3h.7v.8c.2-.6.7-.9 1.2-.9h.2v.7h-.3c-.5 0-.9.4-1 1V280.2h-.8v-3zM1174.7 279v1.2h-.7v-.7c-.2.3-.7.8-1.4.8s-1.5-.4-1.5-1.9v-2.5h.8v2.4c0 .8.2 1.4 1 1.4.5 0 .9-.4 1-.7 0-.1.1-.3.1-.4V276h.8v3zM1176 277v-1.2h.7v.7c.2-.4.7-.8 1.4-.8.6 0 1.5.4 1.5 1.8v2.6h-.8v-2.5c0-.7-.3-1.3-1-1.3-.5 0-.9.4-1 .8 0 .1-.1.2-.1.4v2.6h-.8V277zM1180.8 279.4c.2.2.6.3 1 .3.6 0 .8-.3.8-.6 0-.4-.2-.6-.8-.8-.8-.3-1.1-.7-1.1-1.2 0-.7.6-1.3 1.5-1.3.4 0 .8.1 1.1.3l-.2.6c-.2-.1-.5-.2-.9-.2-.5 0-.7.3-.7.6 0 .4.3.5.8.7.7.3 1.1.7 1.1 1.3 0 .8-.6 1.3-1.6 1.3-.5 0-.9-.1-1.2-.3l.2-.7z"/></g><g><path data-cppathid="10008" d="M1191.4 274.7h.8v2.9c.2-.2.3-.4.5-.6l1.8-2.2h1l-2.2 2.5 2.3 3.4h-.9l-2-2.9-.6.7v2.3h-.8v-6.1zM1200 278.5c0 1.6-1.1 2.3-2.1 2.3-1.2 0-2-.8-2-2.2 0-1.4.9-2.3 2.1-2.3 1.2 0 2 .9 2 2.2zm-3.4.1c0 .9.5 1.6 1.3 1.6.7 0 1.3-.7 1.3-1.7 0-.7-.4-1.6-1.3-1.6s-1.3.9-1.3 1.7zM1201 277.6v-1.2h.7v.7c.2-.4.7-.8 1.4-.8.6 0 1.5.4 1.5 1.8v2.6h-.8v-2.5c0-.7-.3-1.3-1-1.3-.5 0-.9.4-1 .8 0 .1-.1.2-.1.4v2.6h-.8v-3.1zM1206.8 275.2v1.2h1.1v.6h-1.1v2.3c0 .5.2.8.6.8.2 0 .4 0 .5-.1v.6c-.1.1-.4.1-.7.1-.4 0-.7-.1-.8-.3-.2-.2-.3-.6-.3-1.1V277h-.7v-.6h.7v-1l.7-.2zM1211.2 280.7l-.1-.5c-.2.3-.7.6-1.3.6-.9 0-1.3-.6-1.3-1.2 0-1 .9-1.6 2.6-1.6v-.1c0-.4-.1-1-1-1-.4 0-.8.1-1.1.3l-.2-.5c.4-.2.9-.4 1.4-.4 1.3 0 1.6.9 1.6 1.7v1.6c0 .4 0 .7.1 1h-.7zm-.2-2.2c-.8 0-1.8.1-1.8 1 0 .5.3.7.7.7.6 0 .9-.4 1-.7v-1zM1213.8 278.4c.1-.2.3-.3.4-.5l1.3-1.5h.9l-1.7 1.8 1.9 2.5h-.9l-1.5-2.1-.4.4v1.6h-.8v-6.3h.8v4.1zM1218.1 275.2v1.2h1.1v.6h-1.1v2.3c0 .5.2.8.6.8.2 0 .4 0 .5-.1v.6c-.1.1-.4.1-.7.1-.4 0-.7-.1-.8-.3-.2-.2-.3-.6-.3-1.1V277h-.7v-.6h.7v-1l.7-.2z"/></g><g><path data-cppathid="10009" d="M946.2 371.1h35.2" class="st1"/><path data-cppathid="10010" d="M949.7 383 929 371.1l20.7-12zM977.9 383l20.7-11.9-20.7-12z"/></g></g><path data-cppathid="10011" d="M1078.4 212.7h8.6v2.2h-5.9v4.1h5.5v2.2h-5.5v6.3h-2.7v-14.8zM1089 220.3c0-1.5 0-2.5-.1-3.5h2.4l.1 2.1h.1c.5-1.5 1.8-2.3 2.9-2.3.3 0 .4 0 .6.1v2.6c-.2 0-.5-.1-.8-.1-1.3 0-2.2.8-2.4 2.1 0 .2-.1.5-.1.8v5.6h-2.7v-7.4zM1106.9 222.1c0 4-2.8 5.7-5.5 5.7-3.1 0-5.4-2.1-5.4-5.5 0-3.5 2.3-5.7 5.6-5.7 3.2 0 5.3 2.2 5.3 5.5zm-8.1.1c0 2.1 1 3.6 2.7 3.6 1.5 0 2.6-1.5 2.6-3.7 0-1.7-.8-3.6-2.6-3.6-1.9.1-2.7 1.9-2.7 3.7zM1109.2 220c0-1.2 0-2.3-.1-3.2h2.4l.1 1.6h.1c.5-.8 1.6-1.9 3.4-1.9 1.9 0 3.8 1.2 3.8 4.6v6.4h-2.7v-6.1c0-1.5-.6-2.7-2.1-2.7-1.1 0-1.8.8-2.1 1.6-.1.2-.1.6-.1.9v6.3h-2.7V220zM1124.8 213.8v3.1h2.6v2h-2.6v4.8c0 1.3.4 2 1.4 2 .5 0 .8-.1 1.1-.1v2.1c-.4.2-1.1.3-2 .3-1 0-1.8-.3-2.3-.9-.6-.6-.8-1.6-.8-3V219h-1.5v-2h1.5v-2.4l2.6-.8zM1131.2 223c.1 1.9 1.6 2.8 3.3 2.8 1.3 0 2.2-.2 3-.5l.4 1.9c-.9.4-2.2.7-3.8.7-3.5 0-5.5-2.1-5.5-5.4 0-3 1.8-5.8 5.3-5.8s4.6 2.9 4.6 5.2c0 .5 0 .9-.1 1.1h-7.2zm4.8-1.9c0-1-.4-2.6-2.2-2.6-1.7 0-2.4 1.5-2.5 2.6h4.7zM1140.7 220c0-1.2 0-2.3-.1-3.2h2.4l.1 1.6h.1c.5-.8 1.6-1.9 3.4-1.9 1.9 0 3.8 1.2 3.8 4.6v6.4h-2.7v-6.1c0-1.5-.6-2.7-2.1-2.7-1.1 0-1.8.8-2.1 1.6-.1.2-.1.6-.1.9v6.3h-2.7V220zM1163.3 211.9v12.7c0 1.1 0 2.3.1 3h-2.4l-.1-1.7c-.6 1.2-1.9 1.9-3.5 1.9-2.6 0-4.6-2.2-4.6-5.5 0-3.6 2.2-5.7 4.8-5.7 1.5 0 2.5.6 3 1.4v-6.1h2.7zm-2.7 9.4c0-.2 0-.5-.1-.7-.2-1.1-1.1-1.9-2.3-1.9-1.7 0-2.7 1.5-2.7 3.6 0 2 1 3.4 2.7 3.4 1.1 0 2.1-.8 2.3-1.9.1-.2.1-.5.1-.8v-1.7zM1055.9 249.7l-3.1-12.4h1.7l1.5 6.3c.4 1.5.7 3.1.9 4.3.2-1.2.6-2.7 1-4.3l1.7-6.3h1.7l1.5 6.3c.3 1.5.7 2.9.9 4.3.3-1.4.6-2.7 1-4.3l1.6-6.3h1.6l-3.5 12.4h-1.7l-1.6-6.5c-.4-1.6-.6-2.8-.8-4.1-.2 1.2-.5 2.4-1 4.1l-1.8 6.5h-1.6zM1076.8 245.2c0 3.3-2.3 4.7-4.4 4.7-2.4 0-4.3-1.8-4.3-4.6 0-3 2-4.7 4.4-4.7 2.6 0 4.3 1.8 4.3 4.6zm-7.1.1c0 2 1.1 3.4 2.7 3.4 1.5 0 2.7-1.5 2.7-3.5 0-1.5-.8-3.4-2.7-3.4-1.8 0-2.7 1.8-2.7 3.5zM1078.9 243.6c0-1 0-2-.1-2.8h1.4l.1 1.7h.1c.4-1.2 1.4-2 2.5-2 .2 0 .3 0 .5.1v1.5c-.2 0-.3-.1-.6-.1-1.1 0-2 .9-2.2 2.1 0 .2-.1.5-.1.8v4.8h-1.6v-6.1zM1092.4 236.6v10.8c0 .8 0 1.7.1 2.3h-1.5l-.1-1.5c-.5 1-1.6 1.7-3 1.7-2.2 0-3.8-1.8-3.8-4.5 0-3 1.8-4.8 4-4.8 1.4 0 2.3.6 2.7 1.4v-5.3h1.6zm-1.6 7.8c0-.2 0-.5-.1-.7-.2-1-1.1-1.9-2.3-1.9-1.7 0-2.7 1.5-2.7 3.4 0 1.8.9 3.3 2.6 3.3 1.1 0 2.1-.7 2.4-1.9.1-.2.1-.4.1-.7v-1.5zM1095.1 237.4c.8-.1 1.8-.2 3.1-.2 1.6 0 2.7.4 3.5 1 .7.6 1.1 1.5 1.1 2.6s-.3 2-1 2.7c-.8.9-2.2 1.4-3.8 1.4-.5 0-.9 0-1.3-.1v5h-1.6v-12.4zm1.6 6c.3.1.8.1 1.3.1 1.9 0 3.1-.9 3.1-2.7 0-1.6-1.2-2.4-2.9-2.4-.7 0-1.2.1-1.5.1v4.9zM1104.6 243.6c0-1 0-2-.1-2.8h1.4l.1 1.7h.1c.4-1.2 1.4-2 2.5-2 .2 0 .3 0 .5.1v1.5c-.2 0-.3-.1-.6-.1-1.1 0-2 .9-2.2 2.1 0 .2-.1.5-.1.8v4.8h-1.6v-6.1zM1111.3 245.5c0 2.2 1.4 3.1 3.1 3.1 1.2 0 1.9-.2 2.5-.5l.3 1.2c-.6.3-1.5.6-3 .6-2.7 0-4.4-1.8-4.4-4.5s1.6-4.8 4.2-4.8c2.9 0 3.7 2.6 3.7 4.2 0 .3 0 .6-.1.8h-6.3zm4.8-1.1c0-1-.4-2.6-2.2-2.6-1.6 0-2.4 1.5-2.5 2.6h4.7zM1119.4 248c.5.3 1.3.6 2.1.6 1.2 0 1.7-.6 1.7-1.3 0-.8-.5-1.2-1.7-1.6-1.6-.6-2.4-1.5-2.4-2.5 0-1.4 1.2-2.6 3.1-2.6.9 0 1.7.3 2.2.6l-.4 1.2c-.3-.2-1-.5-1.8-.5-1 0-1.5.6-1.5 1.2 0 .7.5 1.1 1.7 1.5 1.5.6 2.3 1.4 2.3 2.7 0 1.6-1.2 2.7-3.3 2.7-1 0-1.9-.2-2.5-.6l.5-1.4zM1126.7 248c.5.3 1.3.6 2.1.6 1.2 0 1.7-.6 1.7-1.3 0-.8-.5-1.2-1.7-1.6-1.6-.6-2.4-1.5-2.4-2.5 0-1.4 1.2-2.6 3.1-2.6.9 0 1.7.3 2.2.6l-.4 1.2c-.3-.2-1-.5-1.8-.5-1 0-1.5.6-1.5 1.2 0 .7.5 1.1 1.7 1.5 1.5.6 2.3 1.4 2.3 2.7 0 1.6-1.2 2.7-3.3 2.7-1 0-1.9-.2-2.5-.6l.5-1.4zM1139.8 238.6h-3.8v-1.4h9.2v1.4h-3.8v11.1h-1.6v-11.1zM1146.4 236.6h1.6v5.6c.3-.5.7-.9 1.2-1.1.5-.3 1-.5 1.7-.5 1.2 0 3.1.7 3.1 3.8v5.3h-1.6v-5.1c0-1.4-.5-2.7-2.1-2.7-1 0-1.9.7-2.2 1.6-.1.2-.1.5-.1.8v5.4h-1.6v-13.1zM1157.6 245.5c0 2.2 1.4 3.1 3.1 3.1 1.2 0 1.9-.2 2.5-.5l.3 1.2c-.6.3-1.5.6-3 .6-2.7 0-4.4-1.8-4.4-4.5s1.6-4.8 4.2-4.8c2.9 0 3.7 2.6 3.7 4.2 0 .3 0 .6-.1.8h-6.3zm4.7-1.1c0-1-.4-2.6-2.2-2.6-1.6 0-2.4 1.5-2.5 2.6h4.7zM1165.9 243.2c0-.9 0-1.7-.1-2.4h1.4l.1 1.4h.1c.5-.8 1.3-1.6 2.8-1.6 1.2 0 2.1.7 2.5 1.8.3-.5.6-.9 1-1.2.5-.4 1.1-.6 2-.6 1.2 0 2.9.8 2.9 3.9v5.2h-1.6v-5c0-1.7-.6-2.7-1.9-2.7-.9 0-1.6.7-1.9 1.5-.1.2-.1.5-.1.8v5.5h-1.6v-5.3c0-1.4-.6-2.4-1.9-2.4-1 0-1.7.8-2 1.6-.1.2-.1.5-.1.8v5.4h-1.6v-6.7zM1182.1 245.5c0 2.2 1.4 3.1 3.1 3.1 1.2 0 1.9-.2 2.5-.5l.3 1.2c-.6.3-1.5.6-3 .6-2.7 0-4.4-1.8-4.4-4.5s1.6-4.8 4.2-4.8c2.9 0 3.7 2.6 3.7 4.2 0 .3 0 .6-.1.8h-6.3zm4.8-1.1c0-1-.4-2.6-2.2-2.6-1.6 0-2.4 1.5-2.5 2.6h4.7z"/></g><path data-cppathid="10012" d="M697.2 260.5h221v221h-221z" class="st2"/><path data-cppathid="10013" d="M697.2 298.2h221.1M750.3 298.2v183.4" class="st7"/><path data-cppathid="10014" d="M634.1 371.1h35.2" class="st1"/><path data-cppathid="10015" d="m637.6 383-20.7-11.9 20.7-12zM665.8 383l20.7-11.9-20.7-12zM768.4 212.9c.9-.2 2.4-.3 4-.3 2 0 3.2.2 4.3 1 .9.6 1.5 1.5 1.5 2.8 0 1.4-.9 2.6-2.5 3.2 1.6.4 3 1.6 3 3.7 0 1.3-.6 2.4-1.4 3.1-1.1.9-2.8 1.4-5.5 1.4-1.5 0-2.7-.1-3.3-.2v-14.7zm2.6 5.9h1.4c1.9 0 2.9-.9 2.9-2.1 0-1.4-1.1-2-2.8-2-.8 0-1.3 0-1.5.1v4zm0 6.8c.4 0 .8.1 1.4.1 1.7 0 3.3-.7 3.3-2.5 0-1.7-1.5-2.4-3.4-2.4H771v4.8zM787.1 227.6l-.2-1.2h-.1c-.7.8-1.8 1.4-3.2 1.4-2.2 0-3.4-1.6-3.4-3.2 0-2.7 2.4-4.1 6.4-4.1v-.2c0-.7-.3-1.9-2.2-1.9-1.1 0-2.2.3-2.9.8l-.5-1.8c.8-.5 2.2-1 3.9-1 3.4 0 4.4 2.2 4.4 4.5v3.9c0 1 0 1.9.2 2.6h-2.4zm-.4-5.3c-1.9 0-3.8.4-3.8 2 0 1.1.7 1.5 1.5 1.5 1.1 0 1.9-.7 2.1-1.5.1-.2.1-.4.1-.6v-1.4zM800.2 227.3c-.6.3-1.7.6-3.1.6-3.4 0-5.5-2.1-5.5-5.5 0-3.2 2.2-5.7 6-5.7 1 0 2 .2 2.6.5l-.5 2c-.4-.2-1.1-.4-2.1-.4-2.1 0-3.3 1.5-3.3 3.5 0 2.2 1.4 3.5 3.3 3.5 1 0 1.6-.2 2.1-.4l.5 1.9zM804.9 221.6c.3-.4.6-.9.9-1.3l2.6-3.5h3.3l-4 4.4 4.6 6.4H809l-3.1-4.8-.9 1.1v3.7h-2.7v-15.7h2.7v9.7zM815.2 223c.1 1.9 1.6 2.8 3.3 2.8 1.3 0 2.2-.2 3-.5l.4 1.9c-.9.4-2.2.7-3.8.7-3.5 0-5.5-2.1-5.5-5.4 0-3 1.8-5.8 5.3-5.8s4.6 2.9 4.6 5.2c0 .5 0 .9-.1 1.1h-7.2zm4.7-1.9c0-1-.4-2.6-2.2-2.6-1.7 0-2.4 1.5-2.5 2.6h4.7zM824.7 220c0-1.2 0-2.3-.1-3.2h2.4l.1 1.6h.1c.5-.8 1.6-1.9 3.4-1.9 1.9 0 3.8 1.2 3.8 4.6v6.4h-2.7v-6.1c0-1.5-.6-2.7-2.1-2.7-1.1 0-1.8.8-2.1 1.6-.1.2-.1.6-.1.9v6.3h-2.7V220zM847.3 211.9v12.7c0 1.1 0 2.3.1 3H845l-.1-1.7c-.6 1.2-1.9 1.9-3.5 1.9-2.6 0-4.6-2.2-4.6-5.5 0-3.6 2.2-5.7 4.8-5.7 1.5 0 2.5.6 3 1.4v-6.1h2.7zm-2.8 9.4c0-.2 0-.5-.1-.7-.2-1.1-1.1-1.9-2.3-1.9-1.7 0-2.7 1.5-2.7 3.6 0 2 1 3.4 2.7 3.4 1.1 0 2.1-.8 2.3-1.9.1-.2.1-.5.1-.8v-1.7zM711.7 249.7l-3.1-12.4h1.7l1.5 6.3c.4 1.5.7 3.1.9 4.3.2-1.2.6-2.7 1-4.3l1.7-6.3h1.7l1.5 6.3c.3 1.5.7 2.9.9 4.3.3-1.4.6-2.7 1-4.3l1.6-6.3h1.6l-3.5 12.4h-1.7l-1.6-6.5c-.4-1.6-.6-2.8-.8-4.1-.2 1.2-.5 2.4-1 4.1l-1.8 6.5h-1.6zM732.7 245.2c0 3.3-2.3 4.7-4.4 4.7-2.4 0-4.3-1.8-4.3-4.6 0-3 2-4.7 4.4-4.7 2.6 0 4.3 1.8 4.3 4.6zm-7.1.1c0 2 1.1 3.4 2.7 3.4 1.5 0 2.7-1.5 2.7-3.5 0-1.5-.8-3.4-2.7-3.4-1.9 0-2.7 1.8-2.7 3.5zM734.7 243.6c0-1 0-2-.1-2.8h1.4l.1 1.7h.1c.4-1.2 1.4-2 2.5-2 .2 0 .3 0 .5.1v1.5c-.2 0-.3-.1-.6-.1-1.1 0-2 .9-2.2 2.1 0 .2-.1.5-.1.8v4.8h-1.6v-6.1zM748.3 236.6v10.8c0 .8 0 1.7.1 2.3h-1.5l-.1-1.5c-.5 1-1.6 1.7-3 1.7-2.2 0-3.8-1.8-3.8-4.5 0-3 1.8-4.8 4-4.8 1.4 0 2.3.6 2.7 1.4v-5.3h1.6zm-1.6 7.8c0-.2 0-.5-.1-.7-.2-1-1.1-1.9-2.3-1.9-1.7 0-2.7 1.5-2.7 3.4 0 1.8.9 3.3 2.6 3.3 1.1 0 2.1-.7 2.4-1.9.1-.2.1-.4.1-.7v-1.5zM751 237.4c.8-.1 1.8-.2 3.1-.2 1.6 0 2.7.4 3.5 1 .7.6 1.1 1.5 1.1 2.6s-.3 2-1 2.7c-.8.9-2.2 1.4-3.8 1.4-.5 0-.9 0-1.3-.1v5H751v-12.4zm1.6 6c.3.1.8.1 1.3.1 1.9 0 3.1-.9 3.1-2.7 0-1.6-1.2-2.4-2.9-2.4-.7 0-1.2.1-1.5.1v4.9zM760.5 243.6c0-1 0-2-.1-2.8h1.4l.1 1.7h.1c.4-1.2 1.4-2 2.5-2 .2 0 .3 0 .5.1v1.5c-.2 0-.3-.1-.6-.1-1.1 0-2 .9-2.2 2.1 0 .2-.1.5-.1.8v4.8h-1.6v-6.1zM767.2 245.5c0 2.2 1.4 3.1 3.1 3.1 1.2 0 1.9-.2 2.5-.5l.3 1.2c-.6.3-1.5.6-3 .6-2.7 0-4.4-1.8-4.4-4.5s1.6-4.8 4.2-4.8c2.9 0 3.7 2.6 3.7 4.2 0 .3 0 .6-.1.8h-6.3zm4.8-1.1c0-1-.4-2.6-2.2-2.6-1.6 0-2.4 1.5-2.5 2.6h4.7zM775.3 248c.5.3 1.3.6 2.1.6 1.2 0 1.7-.6 1.7-1.3 0-.8-.5-1.2-1.7-1.6-1.6-.6-2.4-1.5-2.4-2.5 0-1.4 1.2-2.6 3.1-2.6.9 0 1.7.3 2.2.6l-.4 1.2c-.3-.2-1-.5-1.8-.5-1 0-1.5.6-1.5 1.2 0 .7.5 1.1 1.7 1.5 1.5.6 2.3 1.4 2.3 2.7 0 1.6-1.2 2.7-3.3 2.7-1 0-1.9-.2-2.5-.6l.5-1.4zM782.6 248c.5.3 1.3.6 2.1.6 1.2 0 1.7-.6 1.7-1.3 0-.8-.5-1.2-1.7-1.6-1.6-.6-2.4-1.5-2.4-2.5 0-1.4 1.2-2.6 3.1-2.6.9 0 1.7.3 2.2.6l-.4 1.2c-.3-.2-1-.5-1.8-.5-1 0-1.5.6-1.5 1.2 0 .7.5 1.1 1.7 1.5 1.5.6 2.3 1.4 2.3 2.7 0 1.6-1.2 2.7-3.3 2.7-1 0-1.9-.2-2.5-.6l.5-1.4zM796.1 245.8l-1.3 3.9h-1.7l4.2-12.4h1.9l4.2 12.4h-1.7l-1.3-3.9h-4.3zm4.1-1.3-1.2-3.6c-.3-.8-.5-1.5-.6-2.3-.2.7-.4 1.5-.6 2.2l-1.2 3.6h3.6zM812.8 236.6v10.8c0 .8 0 1.7.1 2.3h-1.5l-.1-1.5c-.5 1-1.6 1.7-3 1.7-2.2 0-3.8-1.8-3.8-4.5 0-3 1.8-4.8 4-4.8 1.4 0 2.3.6 2.7 1.4v-5.3h1.6zm-1.6 7.8c0-.2 0-.5-.1-.7-.2-1-1.1-1.9-2.3-1.9-1.7 0-2.7 1.5-2.7 3.4 0 1.8.9 3.3 2.6 3.3 1.1 0 2.1-.7 2.4-1.9.1-.2.1-.4.1-.7v-1.5zM815.5 243.2c0-.9 0-1.7-.1-2.4h1.4l.1 1.4h.1c.5-.8 1.3-1.6 2.8-1.6 1.2 0 2.1.7 2.5 1.8.3-.5.6-.9 1-1.2.5-.4 1.1-.6 2-.6 1.2 0 2.9.8 2.9 3.9v5.2h-1.6v-5c0-1.7-.6-2.7-1.9-2.7-.9 0-1.6.7-1.9 1.5-.1.2-.1.5-.1.8v5.5H821v-5.3c0-1.4-.6-2.4-1.9-2.4-1 0-1.7.8-2 1.6-.1.2-.1.5-.1.8v5.4h-1.6v-6.7zM832.6 238.3c0 .6-.4 1-1 1s-1-.4-1-1 .4-1 1-1 1 .4 1 1zm-1.8 11.4v-8.9h1.6v8.9h-1.6zM835.1 243.2c0-.9 0-1.7-.1-2.4h1.4l.1 1.5c.4-.8 1.5-1.7 2.9-1.7 1.2 0 3.1.7 3.1 3.8v5.3h-1.6v-5.1c0-1.4-.5-2.6-2.1-2.6-1.1 0-1.9.8-2.2 1.7-.1.2-.1.5-.1.8v5.4h-1.6v-6.7zM847.2 238.3c0 .6-.4 1-1 1s-1-.4-1-1 .4-1 1-1 1 .4 1 1zm-1.8 11.4v-8.9h1.6v8.9h-1.6zM849.5 248c.5.3 1.3.6 2.1.6 1.2 0 1.7-.6 1.7-1.3 0-.8-.5-1.2-1.7-1.6-1.6-.6-2.4-1.5-2.4-2.5 0-1.4 1.2-2.6 3.1-2.6.9 0 1.7.3 2.2.6l-.4 1.2c-.3-.2-1-.5-1.8-.5-1 0-1.5.6-1.5 1.2 0 .7.5 1.1 1.7 1.5 1.5.6 2.3 1.4 2.3 2.7 0 1.6-1.2 2.7-3.3 2.7-1 0-1.9-.2-2.5-.6l.5-1.4zM858.9 238.2v2.6h2.3v1.2h-2.3v4.8c0 1.1.3 1.7 1.2 1.7.4 0 .7-.1.9-.1l.1 1.2c-.3.1-.8.2-1.4.2-.8 0-1.4-.2-1.8-.7-.5-.5-.6-1.3-.6-2.3V242H856v-1.2h1.4v-2.1l1.5-.5zM863.1 243.6c0-1 0-2-.1-2.8h1.4l.1 1.7h.1c.4-1.2 1.4-2 2.5-2 .2 0 .3 0 .5.1v1.5c-.2 0-.3-.1-.6-.1-1.1 0-2 .9-2.2 2.1 0 .2-.1.5-.1.8v4.8h-1.6v-6.1zM873.9 249.7l-.1-1.1h-.1c-.5.7-1.5 1.3-2.7 1.3-1.8 0-2.7-1.3-2.7-2.6 0-2.2 1.9-3.3 5.4-3.3v-.2c0-.7-.2-2.1-2-2.1-.8 0-1.7.3-2.3.7l-.4-1.1c.7-.5 1.8-.8 2.9-.8 2.7 0 3.4 1.9 3.4 3.6v3.3c0 .8 0 1.5.1 2.1h-1.5zm-.2-4.5c-1.8 0-3.8.3-3.8 2 0 1 .7 1.5 1.5 1.5 1.2 0 1.9-.7 2.2-1.5.1-.2.1-.4.1-.5v-1.5zM879.8 238.2v2.6h2.3v1.2h-2.3v4.8c0 1.1.3 1.7 1.2 1.7.4 0 .7-.1.9-.1l.1 1.2c-.3.1-.8.2-1.4.2-.8 0-1.4-.2-1.8-.7-.5-.5-.6-1.3-.6-2.3V242h-1.4v-1.2h1.4v-2.1l1.6-.5zM885.7 238.3c0 .6-.4 1-1 1s-1-.4-1-1 .4-1 1-1 1 .4 1 1zm-1.8 11.4v-8.9h1.6v8.9h-1.6zM896.3 245.2c0 3.3-2.3 4.7-4.4 4.7-2.4 0-4.3-1.8-4.3-4.6 0-3 2-4.7 4.4-4.7 2.5 0 4.3 1.8 4.3 4.6zm-7.1.1c0 2 1.1 3.4 2.7 3.4 1.5 0 2.7-1.5 2.7-3.5 0-1.5-.8-3.4-2.7-3.4-1.9 0-2.7 1.8-2.7 3.5zM898.3 243.2c0-.9 0-1.7-.1-2.4h1.4l.1 1.5c.4-.8 1.5-1.7 2.9-1.7 1.2 0 3.1.7 3.1 3.8v5.3h-1.6v-5.1c0-1.4-.5-2.6-2.1-2.6-1.1 0-1.9.8-2.2 1.7-.1.2-.1.5-.1.8v5.4h-1.6v-6.7z"/><path data-cppathid="10016" d="M385.6 260.5h221v221h-221z" class="st8" id="Hintergrund"/><g id="Linien"><path data-cppathid="10017" d="M385.6 308.4h221M385.6 351.9h221M385.6 396.1h221M385.6 441h221M428.3 260.5v221.1M473.4 260.5v221.1M519 260.5v221.1M562.6 260.5v221.1M385.6 285.2h221M385.6 329.4h221M385.6 371.1h221M385.6 416.7h221M385.6 461.3h221" class="st9"/></g><g><path data-cppathid="10018" d="M444.7 212.9c1.2-.2 2.7-.3 4.3-.3 2.8 0 4.7.6 6.1 1.7 1.4 1.2 2.3 2.9 2.3 5.5 0 2.7-.9 4.6-2.3 5.9-1.5 1.3-3.8 2-6.7 2-1.6 0-2.8-.1-3.7-.2v-14.6zm2.7 12.6c.4.1 1 .1 1.5.1 3.5 0 5.6-1.9 5.6-5.7 0-3.3-1.9-5.2-5.3-5.2-.9 0-1.5.1-1.9.2v10.6zM465.8 227.6l-.2-1.2h-.1c-.7.8-1.8 1.4-3.2 1.4-2.2 0-3.4-1.6-3.4-3.2 0-2.7 2.4-4.1 6.4-4.1v-.2c0-.7-.3-1.9-2.2-1.9-1.1 0-2.2.3-2.9.8l-.5-1.8c.8-.5 2.2-1 3.9-1 3.4 0 4.4 2.2 4.4 4.5v3.9c0 1 0 1.9.2 2.6h-2.4zm-.4-5.3c-1.9 0-3.8.4-3.8 2 0 1.1.7 1.5 1.5 1.5 1.1 0 1.9-.7 2.1-1.5.1-.2.1-.4.1-.6v-1.4zM473.9 213.8v3.1h2.6v2h-2.6v4.8c0 1.3.4 2 1.4 2 .5 0 .8-.1 1.1-.1v2.1c-.4.2-1.1.3-2 .3-1 0-1.8-.3-2.3-.9-.6-.6-.8-1.6-.8-3V219h-1.5v-2h1.5v-2.4l2.6-.8zM480.4 223c.1 1.9 1.6 2.8 3.3 2.8 1.3 0 2.2-.2 3-.5l.4 1.9c-.9.4-2.2.7-3.8.7-3.5 0-5.5-2.1-5.5-5.4 0-3 1.8-5.8 5.3-5.8s4.6 2.9 4.6 5.2c0 .5 0 .9-.1 1.1h-7.2zm4.7-1.9c0-1-.4-2.6-2.2-2.6-1.7 0-2.4 1.5-2.5 2.6h4.7zM489.8 220c0-1.2 0-2.3-.1-3.2h2.4l.1 1.6h.1c.5-.8 1.6-1.9 3.4-1.9 1.9 0 3.8 1.2 3.8 4.6v6.4h-2.7v-6.1c0-1.5-.6-2.7-2.1-2.7-1.1 0-1.8.8-2.1 1.6-.1.2-.1.6-.1.9v6.3h-2.7V220zM502.4 227.6c0-.7.1-1.9.1-3v-12.7h2.7v6.4c.7-1 1.8-1.7 3.4-1.7 2.6 0 4.5 2.2 4.5 5.5 0 3.9-2.5 5.8-4.9 5.8-1.4 0-2.6-.5-3.4-1.9l-.1 1.6h-2.3zm2.8-4.4c0 .2 0 .4.1.6.3 1.1 1.2 1.9 2.4 1.9 1.7 0 2.7-1.4 2.7-3.5 0-1.9-.9-3.4-2.7-3.4-1.1 0-2.1.8-2.4 2 0 .2-.1.4-.1.7v1.7zM521.5 227.6l-.2-1.2h-.1c-.7.8-1.8 1.4-3.2 1.4-2.2 0-3.4-1.6-3.4-3.2 0-2.7 2.4-4.1 6.4-4.1v-.2c0-.7-.3-1.9-2.2-1.9-1.1 0-2.2.3-2.9.8l-.5-1.8c.8-.5 2.2-1 3.9-1 3.4 0 4.4 2.2 4.4 4.5v3.9c0 1 0 1.9.2 2.6h-2.4zm-.4-5.3c-1.9 0-3.8.4-3.8 2 0 1.1.7 1.5 1.5 1.5 1.1 0 1.9-.7 2.1-1.5.1-.2.1-.4.1-.6v-1.4zM526.6 220c0-1.2 0-2.3-.1-3.2h2.4l.1 1.6h.1c.5-.8 1.6-1.9 3.4-1.9 1.9 0 3.8 1.2 3.8 4.6v6.4h-2.7v-6.1c0-1.5-.6-2.7-2.1-2.7-1.1 0-1.8.8-2.1 1.6-.1.2-.1.6-.1.9v6.3h-2.7V220zM542 221.6c.3-.4.6-.9.9-1.3l2.6-3.5h3.3l-4 4.4 4.6 6.4H546l-3.1-4.8-.9 1.1v3.7h-2.7v-15.7h2.7v9.7zM480.9 244.2c-.1-1.7-.2-3.8-.2-5.4h-.1c-.4 1.5-.9 3-1.6 4.7l-2.2 6h-1.2l-2-5.9c-.6-1.7-1.1-3.4-1.4-4.8 0 1.5-.1 3.6-.2 5.5l-.3 5.3h-1.5l.9-12.4h2l2.1 6c.5 1.5.9 2.9 1.3 4.2h.1c.3-1.3.8-2.6 1.3-4.2l2.2-6h2l.8 12.4h-1.6l-.4-5.4zM485.9 240.8l2 5.3c.2.6.4 1.3.6 1.8.2-.5.4-1.2.6-1.9l1.8-5.2h1.7l-2.4 6.4c-1.2 3.1-2 4.6-3.1 5.6-.8.7-1.6 1-2 1l-.4-1.4c.4-.1.9-.4 1.4-.8.4-.4 1-1 1.4-1.8.1-.2.1-.3.1-.4 0-.1 0-.2-.1-.4l-3.3-8.2h1.7zM493.9 247.7c.7.4 1.8.8 2.9.8 1.6 0 2.6-.9 2.6-2.1 0-1.2-.7-1.8-2.3-2.5-2-.7-3.3-1.8-3.3-3.5 0-1.9 1.6-3.4 4-3.4 1.3 0 2.2.3 2.7.6l-.5 1.4c-.4-.2-1.2-.6-2.4-.6-1.7 0-2.3 1-2.3 1.9 0 1.2.8 1.7 2.5 2.4 2.1.8 3.2 1.8 3.2 3.6 0 1.9-1.4 3.6-4.3 3.6-1.2 0-2.5-.3-3.2-.8l.4-1.4zM513.4 251.5c-1.7-.4-3.3-.9-4.8-1.4-.3-.1-.5-.2-.8-.2-2.9-.1-5.5-2.3-5.5-6.3s2.4-6.5 5.8-6.5 5.6 2.6 5.6 6.3c0 3.2-1.5 5.2-3.5 5.9v.1c1.2.3 2.6.6 3.6.8l-.4 1.3zm-1.3-8.1c0-2.5-1.3-5-3.9-5-2.7 0-4 2.5-4 5.2 0 2.6 1.4 5 3.9 5s4-2.3 4-5.2zM515.9 237.3h1.6v11.1h5.3v1.3h-6.9v-12.4z"/></g><g><path data-cppathid="10019" d="m71.5 69-4.9-20.2h3.9l1.9 9.2c.5 2.5 1 5 1.3 7h.1c.3-2.1.9-4.5 1.5-7.1l2.2-9.1h3.9l2 9.3c.5 2.4.9 4.6 1.2 6.8h.1c.4-2.2.8-4.5 1.4-7l2.1-9.1h3.7L86.4 69h-4l-2.1-9.5c-.5-2.3-.9-4.2-1.1-6.4h-.1c-.4 2.2-.8 4.1-1.4 6.4L75.5 69h-4zM101.2 69l-.2-1.6h-.1c-.9 1.1-2.4 2-4.3 2-2.9 0-4.6-2.1-4.6-4.4 0-3.7 3.3-5.5 8.7-5.5v-.2c0-1-.4-2.5-3-2.5-1.4 0-2.9.5-3.9 1.1l-.8-2.5c1.1-.7 3-1.3 5.3-1.3 4.7 0 6 3 6 6.1v5.3c0 1.3.1 2.6.2 3.5h-3.3zm-.5-7.1c-2.6-.1-5.1.5-5.1 2.7 0 1.4.9 2.1 2.1 2.1 1.5 0 2.5-1 2.9-2 .1-.3.1-.6.1-.8v-2zM108.2 59.1c0-2 0-3.4-.1-4.7h3.2l.1 2.8h.1c.7-2.1 2.4-3.1 4-3.1.4 0 .6 0 .9.1v3.5c-.3-.1-.6-.1-1.1-.1-1.8 0-3 1.1-3.3 2.8-.1.3-.1.7-.1 1.1V69h-3.7v-9.9zM132 64.6c0 1.7.1 3.2.1 4.4h-3.2l-.2-2.2h-.1c-.6 1-2.1 2.5-4.7 2.5-2.7 0-5.1-1.6-5.1-6.4v-8.6h3.7v7.9c0 2.4.8 4 2.7 4 1.5 0 2.4-1 2.8-2 .1-.3.2-.7.2-1.1v-8.8h3.7v10.3zM136 58.8c0-1.7 0-3.1-.1-4.3h3.2l.1 2.2h.1c.7-1.1 2-2.5 4.5-2.5 1.9 0 3.4 1.1 4 2.7h.1c.5-.8 1.1-1.4 1.8-1.8.8-.6 1.7-.9 2.9-.9 2.4 0 4.9 1.6 4.9 6.3V69h-3.6v-8.1c0-2.4-.8-3.9-2.6-3.9-1.3 0-2.2.9-2.6 1.9-.1.4-.2.8-.2 1.2V69H145v-8.5c0-2-.8-3.5-2.5-3.5-1.4 0-2.3 1.1-2.6 2.1-.1.4-.2.8-.2 1.2V69H136V58.8zM167.5 69c.1-1 .1-2.6.1-4.1V47.7h3.7v8.7h.1c.9-1.4 2.5-2.3 4.7-2.3 3.6 0 6.1 3 6.1 7.4 0 5.2-3.3 7.9-6.6 7.9-1.9 0-3.6-.7-4.6-2.5h-.1l-.2 2.2h-3.2zm3.8-6c0 .3 0 .6.1.9.4 1.5 1.7 2.6 3.3 2.6 2.3 0 3.7-1.9 3.7-4.8 0-2.6-1.2-4.7-3.7-4.7-1.5 0-2.8 1.1-3.3 2.7-.1.3-.1.6-.1 1V63zM185.2 59.1c0-2 0-3.4-.1-4.7h3.2l.1 2.8h.1c.7-2.1 2.4-3.1 4-3.1.4 0 .6 0 .9.1v3.5c-.3-.1-.6-.1-1.1-.1-1.8 0-3 1.1-3.3 2.8-.1.3-.1.7-.1 1.1V69h-3.7v-9.9zM203.8 69l-.2-1.6h-.1c-.9 1.1-2.4 2-4.3 2-2.9 0-4.6-2.1-4.6-4.4 0-3.7 3.3-5.5 8.7-5.5v-.2c0-1-.4-2.5-3-2.5-1.4 0-2.9.5-3.9 1.1l-.7-2.4c1.1-.7 3-1.3 5.3-1.3 4.7 0 6 3 6 6.1v5.3c0 1.3.1 2.6.2 3.5h-3.4zm-.5-7.1c-2.6-.1-5.1.5-5.1 2.7 0 1.4.9 2.1 2.1 2.1 1.5 0 2.5-1 2.9-2 .1-.3.1-.6.1-.8v-2zM223.9 64.6c0 1.7.1 3.2.1 4.4h-3.2l-.2-2.2h-.1c-.6 1-2.1 2.5-4.7 2.5-2.7 0-5.1-1.6-5.1-6.4v-8.6h3.7v7.9c0 2.4.8 4 2.7 4 1.5 0 2.4-1 2.8-2 .1-.3.2-.7.2-1.1v-8.8h3.7v10.3zM238.7 68.6c-.8.4-2.3.8-4.1.8-4.6 0-7.5-2.9-7.5-7.4 0-4.4 3-7.8 8.1-7.8 1.4 0 2.7.3 3.6.7l-.7 2.8c-.6-.3-1.5-.6-2.8-.6-2.8 0-4.5 2.1-4.5 4.7 0 3 2 4.7 4.5 4.7 1.3 0 2.2-.3 2.9-.6l.5 2.7zM241.4 47.7h3.7v8.7h.1c.5-.7 1-1.3 1.8-1.7.7-.4 1.6-.7 2.5-.7 2.5 0 5.1 1.6 5.1 6.3V69h-3.7v-8.2c0-2.1-.8-3.7-2.8-3.7-1.4 0-2.5 1-2.9 2.1-.1.3-.1.7-.1 1.1V69h-3.7V47.7zM261.2 62.7c.1 2.6 2.2 3.8 4.5 3.8 1.7 0 2.9-.2 4-.7l.5 2.5c-1.3.5-3 .9-5.1.9-4.7 0-7.5-2.9-7.5-7.4 0-4 2.5-7.9 7.1-7.9 4.7 0 6.3 3.9 6.3 7.1 0 .7-.1 1.2-.1 1.6h-9.7zm6.4-2.5c0-1.4-.6-3.6-3-3.6-2.3 0-3.2 2.1-3.4 3.6h6.4zM274 58.8c0-1.7 0-3.1-.1-4.3h3.2l.2 2.2h.1c.6-1.1 2.2-2.5 4.6-2.5 2.5 0 5.2 1.6 5.2 6.3V69h-3.7v-8.2c0-2.1-.8-3.7-2.8-3.7-1.5 0-2.5 1-2.9 2.2-.1.3-.1.8-.1 1.2V69H274V58.8zM299.6 54.4l1.5 6.6c.3 1.6.7 3.1.9 4.7h.1c.3-1.6.8-3.2 1.2-4.7l1.9-6.7h3l1.8 6.5c.5 1.7.8 3.3 1.2 4.9h.1c.2-1.6.6-3.2 1-4.9l1.6-6.5h3.6L312.9 69h-3.4l-1.7-5.9c-.5-1.5-.8-2.9-1.1-4.7h-.1c-.3 1.8-.7 3.2-1.1 4.7l-1.9 5.9h-3.4l-4.3-14.6h3.7zM323.8 50.3c0 1.1-.8 2-2.1 2-1.2 0-2-.9-2-2s.8-2 2.1-2c1.2 0 2 .9 2 2zM319.9 69V54.4h3.7V69h-3.7zM327.5 59.1c0-2 0-3.4-.1-4.7h3.2l.1 2.8h.1c.7-2.1 2.4-3.1 4-3.1.4 0 .6 0 .9.1v3.5c-.3-.1-.6-.1-1.1-.1-1.8 0-3 1.1-3.3 2.8-.1.3-.1.7-.1 1.1V69h-3.7v-9.9zM355.4 69l-2.2-4c-.9-1.6-1.4-2.6-2-3.8h-.1c-.5 1.2-1 2.2-1.8 3.8l-2 4H343l6-10.2-5.8-10h4.2l2.2 4.2c.7 1.3 1.1 2.2 1.7 3.4h.1c.5-1.3 1-2.2 1.6-3.4l2.2-4.2h4.2l-5.9 9.9 6.1 10.3h-4.2zM370.2 69l-.2-1.6h-.1c-.9 1.1-2.4 2-4.3 2-2.9 0-4.6-2.1-4.6-4.4 0-3.7 3.3-5.5 8.7-5.5v-.2c0-1-.4-2.5-3-2.5-1.4 0-2.9.5-3.9 1.1l-.7-2.4c1.1-.7 3-1.3 5.3-1.3 4.7 0 6 3 6 6.1v5.3c0 1.3.1 2.6.2 3.5h-3.4zm-.5-7.1c-2.6-.1-5.1.5-5.1 2.7 0 1.4.9 2.1 2.1 2.1 1.5 0 2.5-1 2.9-2 .1-.3.1-.6.1-.8v-2zM377.2 58.8c0-1.7 0-3.1-.1-4.3h3.2l.2 2.2h.1c.7-1.1 2-2.5 4.5-2.5 1.9 0 3.4 1.1 4 2.7h.1c.5-.8 1.1-1.4 1.8-1.8.8-.6 1.7-.9 2.9-.9 2.4 0 4.9 1.6 4.9 6.3V69h-3.6v-8.1c0-2.4-.8-3.9-2.6-3.9-1.3 0-2.2.9-2.6 1.9-.1.4-.2.8-.2 1.2V69h-3.6v-8.5c0-2-.8-3.5-2.5-3.5-1.4 0-2.3 1.1-2.6 2.1-.1.4-.2.8-.2 1.2V69h-3.6V58.8zM402.7 59.3c0-1.9-.1-3.5-.1-4.9h3.2l.2 2.2h.1c1.1-1.6 2.8-2.6 5-2.6 3.4 0 6.1 2.9 6.1 7.4 0 5.3-3.3 7.8-6.7 7.8-1.8 0-3.4-.8-4.1-2h-.1V75h-3.7V59.3zm3.7 3.6c0 .4 0 .7.1 1 .4 1.5 1.7 2.6 3.2 2.6 2.3 0 3.7-1.9 3.7-4.8 0-2.6-1.3-4.7-3.6-4.7-1.5 0-2.9 1.1-3.3 2.7-.1.3-.1.6-.1.9v2.3zM420.2 59.3c0-1.9-.1-3.5-.1-4.9h3.2l.2 2.2h.1c1.1-1.6 2.8-2.6 5-2.6 3.4 0 6.1 2.9 6.1 7.4 0 5.3-3.3 7.8-6.7 7.8-1.8 0-3.4-.8-4.1-2h-.1V75h-3.7V59.3zm3.7 3.6c0 .4 0 .7.1 1 .4 1.5 1.7 2.6 3.2 2.6 2.3 0 3.7-1.9 3.7-4.8 0-2.6-1.3-4.7-3.6-4.7-1.5 0-2.9 1.1-3.3 2.7-.1.3-.1.6-.1.9v2.3zM440 62.8l-.1-.8c-.1-1.6.4-3.2 1.8-4.9 1.1-1.4 1.9-2.4 1.9-3.6 0-1.3-.8-2.1-2.5-2.1-1 0-2.2.3-3 .9l-.9-2.6c1.1-.7 2.8-1.2 4.7-1.2 3.7 0 5.4 2.2 5.4 4.6 0 2.2-1.3 3.7-2.6 5.1-1.2 1.4-1.6 2.6-1.6 4v.6H440zm-.7 4.2c0-1.4 1-2.3 2.3-2.3 1.3 0 2.2 1 2.3 2.3 0 1.3-.9 2.3-2.3 2.3s-2.3-1-2.3-2.3z"/></g><path data-cppathid="10020" d="M75.1 260.5h221v221h-221z" class="st8" id="Hintergrund_00000179623807692531248050000002427312835300422034_"/><g><path data-cppathid="10021" d="m138.6 227.6-3.6-14.9h2.9l1.4 6.8c.4 1.8.7 3.7 1 5.2.2-1.6.7-3.3 1.1-5.2l1.6-6.7h2.9l1.5 6.9c.4 1.8.7 3.4.9 5 .3-1.6.6-3.3 1-5.2l1.5-6.7h2.8l-4 14.9h-2.9l-1.5-7c-.4-1.7-.6-3.1-.8-4.7-.3 1.6-.6 3-1 4.7l-1.7 7h-3.1zM156.4 223c.1 1.9 1.6 2.8 3.3 2.8 1.3 0 2.2-.2 3-.5l.4 1.9c-.9.4-2.2.7-3.8.7-3.5 0-5.5-2.1-5.5-5.4 0-3 1.8-5.8 5.3-5.8s4.6 2.9 4.6 5.2c0 .5 0 .9-.1 1.1h-7.2zm4.7-1.9c0-1-.4-2.6-2.2-2.6-1.7 0-2.4 1.5-2.5 2.6h4.7zM165.8 227.6c0-.7.1-1.9.1-3v-12.7h2.7v6.4c.7-1 1.8-1.7 3.4-1.7 2.6 0 4.5 2.2 4.5 5.5 0 3.9-2.5 5.8-4.9 5.8-1.4 0-2.6-.5-3.4-1.9l-.1 1.6h-2.3zm2.8-4.4c0 .2 0 .4.1.6.3 1.1 1.2 1.9 2.4 1.9 1.7 0 2.7-1.4 2.7-3.5 0-1.9-.9-3.4-2.7-3.4-1.1 0-2.1.8-2.4 2 0 .2-.1.4-.1.7v1.7zM178.7 225.1c.6.4 1.8.8 2.8.8 1.2 0 1.7-.5 1.7-1.2s-.4-1.1-1.8-1.6c-2.1-.7-3-1.9-3-3.1 0-1.9 1.6-3.4 4.1-3.4 1.2 0 2.2.3 2.9.6l-.5 1.9c-.5-.3-1.3-.6-2.3-.6-1 0-1.5.5-1.5 1.1 0 .7.5 1 1.9 1.5 1.9.7 2.9 1.7 2.9 3.3 0 1.9-1.5 3.4-4.4 3.4-1.3 0-2.5-.3-3.3-.8l.5-1.9zM189.9 223c.1 1.9 1.6 2.8 3.3 2.8 1.3 0 2.2-.2 3-.5l.4 1.9c-.9.4-2.2.7-3.8.7-3.5 0-5.5-2.1-5.5-5.4 0-3 1.8-5.8 5.3-5.8s4.6 2.9 4.6 5.2c0 .5 0 .9-.1 1.1h-7.2zm4.8-1.9c0-1-.4-2.6-2.2-2.6-1.7 0-2.4 1.5-2.5 2.6h4.7zM199.4 220.3c0-1.5 0-2.5-.1-3.5h2.4l.1 2.1h.1c.5-1.5 1.8-2.3 2.9-2.3.3 0 .4 0 .6.1v2.6c-.2 0-.5-.1-.8-.1-1.3 0-2.2.8-2.4 2.1 0 .2-.1.5-.1.8v5.6h-2.7v-7.4zM209.5 216.8l1.7 5.5c.3 1 .5 1.8.7 2.7h.1c.2-.9.4-1.7.7-2.7l1.7-5.5h2.9l-4.1 10.8h-2.7l-4-10.8h3zM220.6 223c.1 1.9 1.6 2.8 3.3 2.8 1.3 0 2.2-.2 3-.5l.4 1.9c-.9.4-2.2.7-3.8.7-3.5 0-5.5-2.1-5.5-5.4 0-3 1.8-5.8 5.3-5.8s4.6 2.9 4.6 5.2c0 .5 0 .9-.1 1.1h-7.2zm4.8-1.9c0-1-.4-2.6-2.2-2.6-1.7 0-2.4 1.5-2.5 2.6h4.7zM230.1 220.3c0-1.5 0-2.5-.1-3.5h2.4l.1 2.1h.1c.5-1.5 1.8-2.3 2.9-2.3.3 0 .4 0 .6.1v2.6c-.2 0-.5-.1-.8-.1-1.3 0-2.2.8-2.4 2.1 0 .2-.1.5-.1.8v5.6h-2.7v-7.4zM127.8 237.4c.8-.1 1.8-.2 3.1-.2 1.6 0 2.7.4 3.5 1 .7.6 1.1 1.5 1.1 2.6s-.3 2-1 2.7c-.8.9-2.2 1.4-3.8 1.4-.5 0-.9 0-1.3-.1v5h-1.6v-12.4zm1.6 6c.4.1.8.1 1.3.1 1.9 0 3.1-.9 3.1-2.7 0-1.6-1.2-2.4-2.9-2.4-.7 0-1.2.1-1.5.1v4.9zM139.2 237.3v5.2h6v-5.2h1.6v12.4h-1.6v-5.8h-6v5.8h-1.6v-12.4h1.6zM149.6 237.4c.8-.1 1.8-.2 3.1-.2 1.6 0 2.7.4 3.5 1 .7.6 1.1 1.5 1.1 2.6s-.3 2-1 2.7c-.8.9-2.2 1.4-3.8 1.4-.5 0-.9 0-1.3-.1v5h-1.6v-12.4zm1.6 6c.4.1.8.1 1.3.1 1.9 0 3.1-.9 3.1-2.7 0-1.6-1.2-2.4-2.9-2.4-.7 0-1.2.1-1.5.1v4.9zM164.9 237.3v12.4h-1.6v-12.4h1.6zM167.8 243.2c0-.9 0-1.7-.1-2.4h1.4l.1 1.5c.4-.8 1.5-1.7 2.9-1.7 1.2 0 3.1.7 3.1 3.8v5.3h-1.6v-5.1c0-1.4-.5-2.6-2.1-2.6-1.1 0-1.9.8-2.2 1.7-.1.2-.1.5-.1.8v5.4h-1.6v-6.7zM179.9 238.2v2.6h2.3v1.2h-2.3v4.8c0 1.1.3 1.7 1.2 1.7.4 0 .7-.1.9-.1l.1 1.2c-.3.1-.8.2-1.4.2-.8 0-1.4-.2-1.8-.7-.5-.5-.6-1.3-.6-2.3V242H177v-1.2h1.4v-2.1l1.5-.5zM184.9 245.5c0 2.2 1.4 3.1 3.1 3.1 1.2 0 1.9-.2 2.5-.5l.3 1.2c-.6.3-1.5.6-3 .6-2.7 0-4.4-1.8-4.4-4.5s1.6-4.8 4.2-4.8c2.9 0 3.7 2.6 3.7 4.2 0 .3 0 .6-.1.8h-6.3zm4.7-1.1c0-1-.4-2.6-2.2-2.6-1.6 0-2.4 1.5-2.5 2.6h4.7zM193.2 243.6c0-1 0-2-.1-2.8h1.4l.1 1.7h.1c.4-1.2 1.4-2 2.5-2 .2 0 .3 0 .5.1v1.5c-.2 0-.3-.1-.6-.1-1.1 0-2 .9-2.2 2.1 0 .2-.1.5-.1.8v4.8h-1.6v-6.1zM199.3 243.7c0-1.1 0-2.1-.1-2.9h1.5l.1 1.5c.7-1.1 1.7-1.7 3.2-1.7 2.2 0 3.8 1.8 3.8 4.5 0 3.2-2 4.8-4.1 4.8-1.2 0-2.2-.5-2.7-1.4v4.8h-1.6v-9.6zm1.6 2.4c0 .2 0 .5.1.7.3 1.1 1.3 1.9 2.4 1.9 1.7 0 2.7-1.4 2.7-3.4 0-1.8-.9-3.3-2.7-3.3-1.1 0-2.1.8-2.4 2-.1.2-.1.4-.1.7v1.4zM209.8 243.6c0-1 0-2-.1-2.8h1.4l.1 1.7h.1c.4-1.2 1.4-2 2.5-2 .2 0 .3 0 .5.1v1.5c-.2 0-.3-.1-.6-.1-1.1 0-2 .9-2.2 2.1 0 .2-.1.5-.1.8v4.8h-1.6v-6.1zM216.5 245.5c0 2.2 1.4 3.1 3.1 3.1 1.2 0 1.9-.2 2.5-.5l.3 1.2c-.6.3-1.5.6-3 .6-2.7 0-4.4-1.8-4.4-4.5s1.6-4.8 4.2-4.8c2.9 0 3.7 2.6 3.7 4.2 0 .3 0 .6-.1.8h-6.3zm4.8-1.1c0-1-.4-2.6-2.2-2.6-1.6 0-2.4 1.5-2.5 2.6h4.7zM226.8 238.2v2.6h2.3v1.2h-2.3v4.8c0 1.1.3 1.7 1.2 1.7.4 0 .7-.1.9-.1l.1 1.2c-.3.1-.8.2-1.4.2-.8 0-1.4-.2-1.8-.7-.5-.5-.6-1.3-.6-2.3V242h-1.4v-1.2h1.4v-2.1l1.6-.5zM231.7 245.5c0 2.2 1.4 3.1 3.1 3.1 1.2 0 1.9-.2 2.5-.5l.3 1.2c-.6.3-1.5.6-3 .6-2.7 0-4.4-1.8-4.4-4.5s1.6-4.8 4.2-4.8c2.9 0 3.7 2.6 3.7 4.2 0 .3 0 .6-.1.8h-6.3zm4.8-1.1c0-1-.4-2.6-2.2-2.6-1.6 0-2.4 1.5-2.5 2.6h4.7zM240.1 243.6c0-1 0-2-.1-2.8h1.4l.1 1.7h.1c.4-1.2 1.4-2 2.5-2 .2 0 .3 0 .5.1v1.5c-.2 0-.3-.1-.6-.1-1.1 0-2 .9-2.2 2.1 0 .2-.1.5-.1.8v4.8h-1.6v-6.1z"/></g><g id="Xampp_Logo"><path data-cppathid="10022" d="M185.5 298.6h55c2.3 0 4.6.2 6.8.9 4.8 1.5 7.3 4.9 8.3 9.6.4 1.9.5 3.8.5 5.7 0 12.9.1 25.7.1 38.6v70.3c0 3.3-.2 6.6-1.8 9.6-1.8 3.3-4.2 5.9-8 7.1-.7.2-1.4.4-2.1.4-1.6 0-3.1.4-4.7.4H131.9c-2.9 0-5.9-.2-8.7-1.4-.6-.2-1.1-.4-1.6-.8-3.5-2.7-5.9-6.1-6.4-10.6-.2-1.6-.2-3.3-.2-4.9V314.2c0-2.1 0-4.3.7-6.3 1.7-5.4 5.5-8.3 11.1-8.9 1.3-.1 2.6-.2 3.9-.2 18.3-.2 36.6-.2 54.8-.2zm.6 90.7c.4 2.2.7 4 1.3 5.9 4 11.1 15.7 20.3 31.1 16.6 11-2.7 19-12.8 19.3-24.1.2-5.4-1.1-10.4-4.1-14.9-.5-.8-.5-1.4-.2-2.2 1.8-3.8 3-7.9 3.7-12 .7-4.2.8-8.4 0-12.6-1.9-9.9-12-20.6-25.6-20.5-13.4.1-22.9 10.3-25 19.9-.2 1.2-.4 2.3-.7 3.8-.2-.8-.3-1.3-.4-1.8-1.6-10.7-11.8-20.1-22.7-21.2-12.5-1.2-21.8 5.9-26.1 14.3-1.5 2.9-2.2 5.9-2.5 9.1-.5 6 .8 11.5 4.2 16.5.4.6.4 1 .1 1.6-2.2 4.2-3.6 8.7-4.1 13.4-.5 4.4-.6 8.8.7 13.2 3.5 12 15 19.7 27.5 18.3 10.6-1.2 17.6-7 21.8-16.6 1-2.1 1.3-4.3 1.7-6.7z" class="st10"/><path data-cppathid="10023" style="fill:#fff" d="M186.1 389.3c-.4 2.5-.7 4.7-1.6 6.7-4.1 9.6-11.2 15.5-21.8 16.6-12.5 1.4-24-6.3-27.5-18.3-1.3-4.3-1.1-8.8-.7-13.2.5-4.7 1.9-9.2 4-13.4.3-.6.3-1.1-.1-1.6-3.3-5-4.6-10.6-4.2-16.5.3-3.2 1-6.3 2.5-9.1 4.2-8.4 13.6-15.5 26.1-14.3 11 1 21.2 10.5 22.7 21.2.1.5.2 1.1.4 1.8.3-1.4.5-2.6.7-3.8 2-9.7 11.5-19.8 25-19.9 13.6-.1 23.7 10.6 25.6 20.5.8 4.2.7 8.4 0 12.6-.7 4.2-1.9 8.2-3.7 12-.4.8-.4 1.5.2 2.2 2.9 4.5 4.2 9.5 4.1 14.9-.3 11.3-8.3 21.4-19.3 24.1-15.4 3.7-27.1-5.5-31.1-16.6-.6-1.9-.9-3.8-1.3-5.9zm27.9-19.9c.2-.6.7-1 1-1.5 3.9-5.1 5.9-10.8 5.4-17.3-.3-4.7-4.2-8-8.9-7.8-4.7.2-8.2 3.8-8.3 8.5v1.1c-.3 5-3.1 7.7-7.2 8-.8.1-1.5.1-2.3.1h-16.2c-2.4 0-4.7.3-7 .9-10.5 3.2-16.6 10.4-18.7 21.1-.4 2.1-.8 4.3-.1 6.5 1 3.1 2.9 5.4 6.1 6.2 3.4.8 6.4-.1 8.7-2.8 1.5-1.7 2-3.8 2.1-6 .3-5.8 3.5-8.7 8.7-8.7 8.1.1 16.2 0 24.3 0 1.4 0 1.4 0 1.5 1.4 0 2.6-.1 5.3 0 7.9.2 4.3 3.9 7.8 8.3 8 4.5.1 8.5-3.2 8.8-7.5.3-3.8.2-7.5 0-11.3-.2-2.9-1.8-5-4.4-6.2-.4-.1-1.1-.3-1.8-.6zm-50.7-8.8h4.6c.7 0 1-.3 1-1 0-2.7.1-5.5-.1-8.2-.2-3.6-2.1-6.2-5.5-7.5-3.4-1.3-6.6-.6-9.2 2-2.7 2.5-3 5.7-2.1 9.1.9 3.1 2.9 4.9 6.1 5.4 1.8.3 3.6.1 5.2.2z"/><path data-cppathid="10024" d="M214 369.4c.7.3 1.3.5 2 .8 2.7 1.2 4.2 3.3 4.4 6.2.2 3.8.3 7.6 0 11.3-.3 4.3-4.3 7.7-8.8 7.5-4.4-.1-8.1-3.7-8.3-8-.1-2.6 0-5.2 0-7.9 0-1.4 0-1.4-1.5-1.4h-24.3c-5.3 0-8.4 2.9-8.7 8.7-.1 2.3-.6 4.3-2.1 6-2.4 2.7-5.3 3.6-8.7 2.8-3.3-.8-5.1-3.1-6.1-6.2-.7-2.2-.3-4.4.1-6.5 2-10.7 8.2-17.9 18.7-21.1 2.3-.7 4.6-1 7-1h16.2c.8 0 1.5-.1 2.3-.1 4.2-.3 6.9-3 7.2-8v-1.1c.1-4.7 3.6-8.3 8.3-8.5 4.7-.2 8.5 3.1 8.9 7.8.5 6.4-1.6 12.1-5.4 17.3-.5.4-1 .8-1.2 1.4zM163.3 360.6c-1.5 0-3.4.1-5.2-.2-3.2-.5-5.2-2.3-6.1-5.4-.9-3.4-.6-6.5 2.1-9.1 2.7-2.5 5.8-3.3 9.2-2 3.3 1.3 5.3 3.9 5.5 7.5.2 2.7 0 5.5.1 8.2 0 .7-.3 1-1 1h-4.6z" class="st10"/></g><g><path data-cppathid="10025" d="M185.6 583v-90.4"/><path data-cppathid="10026" d="M185.6 583v-79.7" class="st9"/><path data-cppathid="10027" d="m193.1 505.5-7.5-12.9-7.5 12.9z"/></g><g><path data-cppathid="10028" d="M131 606h2.6v21.3H131V606zM151.3 619.9c0 5.4-3.7 7.7-7.2 7.7-3.9 0-7-2.9-7-7.5 0-4.9 3.2-7.7 7.2-7.7 4.1.1 7 3.1 7 7.5zm-11.6.2c0 3.2 1.8 5.6 4.4 5.6 2.5 0 4.4-2.4 4.4-5.6 0-2.5-1.2-5.6-4.3-5.6-3.1-.1-4.5 2.8-4.5 5.6zM164.9 626.8c-.7.4-2.2.8-4.2.8-4.4 0-7.2-3-7.2-7.4 0-4.5 3.1-7.7 7.8-7.7 1.6 0 2.9.4 3.7.8l-.6 2c-.6-.4-1.6-.7-3.1-.7-3.3 0-5.1 2.5-5.1 5.5 0 3.4 2.2 5.4 5 5.4 1.5 0 2.5-.4 3.2-.7l.5 2zM176.1 627.3l-.2-1.8h-.1c-.8 1.1-2.4 2.2-4.4 2.2-2.9 0-4.4-2.1-4.4-4.2 0-3.5 3.1-5.4 8.7-5.4v-.3c0-1.2-.3-3.4-3.3-3.4-1.3 0-2.8.4-3.8 1.1l-.6-1.7c1.2-.8 2.9-1.3 4.8-1.3 4.4 0 5.5 3 5.5 5.9v5.4c0 1.3.1 2.5.2 3.5h-2.4zm-.4-7.4c-2.9-.1-6.1.5-6.1 3.3 0 1.7 1.1 2.5 2.5 2.5 1.9 0 3.1-1.2 3.5-2.4.1-.3.2-.6.2-.8v-2.6zM182.5 606h2.6v21.3h-2.6V606zM189.6 606h2.6v9.1h.1c.4-.8 1.1-1.4 1.9-1.9.8-.5 1.7-.8 2.7-.8 2 0 5.1 1.2 5.1 6.2v8.6h-2.6V619c0-2.3-.9-4.3-3.4-4.3-1.7 0-3.1 1.2-3.5 2.6-.1.4-.2.8-.2 1.3v8.8h-2.6V606zM219.4 619.9c0 5.4-3.7 7.7-7.2 7.7-3.9 0-7-2.9-7-7.5 0-4.9 3.2-7.7 7.2-7.7 4.1.1 7 3.1 7 7.5zm-11.6.2c0 3.2 1.8 5.6 4.4 5.6 2.5 0 4.4-2.4 4.4-5.6 0-2.5-1.2-5.6-4.3-5.6-3.1-.1-4.5 2.8-4.5 5.6zM222.3 624.6c.8.5 2.2 1 3.5 1 1.9 0 2.8-1 2.8-2.2 0-1.3-.8-2-2.7-2.7-2.6-.9-3.8-2.4-3.8-4.1 0-2.3 1.9-4.3 5-4.3 1.5 0 2.8.4 3.6.9l-.7 1.9c-.6-.4-1.6-.8-3-.8-1.6 0-2.4.9-2.4 2 0 1.2.9 1.7 2.8 2.5 2.5 1 3.8 2.2 3.8 4.4 0 2.5-2 4.3-5.4 4.3-1.6 0-3.1-.4-4.1-1l.6-1.9zM237.7 608.6v4.2h3.8v2h-3.8v7.8c0 1.8.5 2.8 2 2.8.7 0 1.2-.1 1.5-.2l.1 2c-.5.2-1.3.4-2.3.4-1.2 0-2.2-.4-2.8-1.1-.8-.8-1-2.1-1-3.8v-7.9H233v-2h2.2v-3.5l2.5-.7z"/></g><path data-cppathid="10029" d="M66.1 606h258.4v27H66.1z" style="fill:none"/></svg>