<?xml version="1.0" encoding="UTF-8"?>
<svg xmlns="http://www.w3.org/2000/svg" onmouseup="{ if(window.parent.document.onmouseup) window.parent.document.onmouseup(arguments[0]);}" viewBox="0 0 226.04 226.04"><defs><style>
      .cls-1, .cls-3 {
        fill: #fff;
      }

      .cls-1 {
        stroke: #000;
        stroke-miterlimit: 10;
        stroke-width: 5px;
      }

      .cls-2 {
        fill: #fb7a24;
      }
    </style></defs><g data-name="Ebene 2" id="Ebene_2"><g data-name="Warum Xampp" id="Warum_Xampp"><g><rect data-cppathid="10000" height="221.04" width="221.04" y="2.5" x="2.5" class="cls-1" id="Hintergrund"/><g><path data-cppathid="10001" d="M55.25,14.68a18.33,18.33,0,0,1,3.07-.24,5.09,5.09,0,0,1,3.48,1,3.33,3.33,0,0,1,1.09,2.6,3.62,3.62,0,0,1-1,2.65,5.1,5.1,0,0,1-3.79,1.37A5.64,5.64,0,0,1,56.85,22v5h-1.6Zm1.6,6a5.47,5.47,0,0,0,1.33.13c1.93,0,3.11-.94,3.11-2.65s-1.16-2.44-2.93-2.44a7,7,0,0,0-1.51.13Z"/><path data-cppathid="10002" d="M66.65,14.54v5.19h6V14.54h1.62V27H72.65V21.13h-6V27h-1.6V14.54Z"/><path data-cppathid="10003" d="M77.06,14.68a18.33,18.33,0,0,1,3.07-.24,5.09,5.09,0,0,1,3.48,1,3.36,3.36,0,0,1,1.09,2.6,3.62,3.62,0,0,1-1,2.65A5.12,5.12,0,0,1,80,22.09,5.64,5.64,0,0,1,78.66,22v5h-1.6Zm1.6,6A5.44,5.44,0,0,0,80,20.8c1.94,0,3.12-.94,3.12-2.65s-1.16-2.44-2.93-2.44a6.89,6.89,0,0,0-1.51.13Z"/><path data-cppathid="10004" d="M92.36,14.54V27h-1.6V14.54Z"/><path data-cppathid="10005" d="M95.29,20.45c0-.92,0-1.68-.07-2.41h1.43l.1,1.47h0a3.29,3.29,0,0,1,3-1.68c1.23,0,3.15.74,3.15,3.8V27h-1.62V21.81c0-1.44-.54-2.63-2.06-2.63A2.31,2.31,0,0,0,97,20.83a2.49,2.49,0,0,0-.11.76V27H95.29Z"/><path data-cppathid="10006" d="M107.39,15.47V18h2.32v1.23h-2.32v4.81c0,1.1.32,1.73,1.22,1.73a3.87,3.87,0,0,0,.94-.11l.07,1.21a3.92,3.92,0,0,1-1.43.22,2.24,2.24,0,0,1-1.75-.68,3.26,3.26,0,0,1-.63-2.32V19.27h-1.38V18h1.38V15.9Z"/><path data-cppathid="10007" d="M112.33,22.79a2.86,2.86,0,0,0,3.06,3.09,5.85,5.85,0,0,0,2.47-.46l.27,1.16a7.19,7.19,0,0,1-3,.55,4.14,4.14,0,0,1-4.39-4.49c0-2.69,1.59-4.81,4.18-4.81,2.91,0,3.69,2.56,3.69,4.2a5.82,5.82,0,0,1-.06.76Zm4.75-1.16A2.31,2.31,0,0,0,114.83,19a2.69,2.69,0,0,0-2.48,2.64Z"/><path data-cppathid="10008" d="M120.66,20.82c0-1.05,0-2-.08-2.78H122l.06,1.75h.07a2.67,2.67,0,0,1,2.47-2,1.65,1.65,0,0,1,.46.06v1.53a2.22,2.22,0,0,0-2.73,2,5.48,5.48,0,0,0-.07.76V27h-1.6Z"/><path data-cppathid="10009" d="M126.75,21c0-1.15,0-2.07-.07-2.91h1.45l.08,1.52h0a3.51,3.51,0,0,1,3.16-1.73c2.16,0,3.78,1.83,3.78,4.53,0,3.21-1.95,4.79-4.05,4.79a3.13,3.13,0,0,1-2.75-1.4h0V30.6h-1.61Zm1.61,2.37a3.34,3.34,0,0,0,.07.66,2.49,2.49,0,0,0,2.43,1.9c1.71,0,2.71-1.4,2.71-3.44,0-1.79-.94-3.32-2.65-3.32a2.58,2.58,0,0,0-2.45,2,2.4,2.4,0,0,0-.11.66Z"/><path data-cppathid="10010" d="M137.23,20.82c0-1.05,0-2-.07-2.78h1.42l0,1.75h.08a2.67,2.67,0,0,1,2.47-2,1.65,1.65,0,0,1,.46.06v1.53a2.34,2.34,0,0,0-.56-.06,2.27,2.27,0,0,0-2.17,2.08,4.28,4.28,0,0,0-.07.76V27h-1.61Z"/><path data-cppathid="10011" d="M144,22.79A2.85,2.85,0,0,0,147,25.88a5.85,5.85,0,0,0,2.47-.46l.28,1.16a7.21,7.21,0,0,1-3,.55,4.14,4.14,0,0,1-4.38-4.49c0-2.69,1.58-4.81,4.18-4.81,2.91,0,3.68,2.56,3.68,4.2a6.2,6.2,0,0,1,0,.76Zm4.75-1.16A2.32,2.32,0,0,0,146.48,19,2.69,2.69,0,0,0,144,21.63Z"/><path data-cppathid="10012" d="M154.25,15.47V18h2.32v1.23h-2.32v4.81c0,1.1.32,1.73,1.22,1.73a3.87,3.87,0,0,0,.94-.11l.07,1.21a3.92,3.92,0,0,1-1.43.22,2.24,2.24,0,0,1-1.75-.68,3.3,3.3,0,0,1-.63-2.32V19.27h-1.38V18h1.38V15.9Z"/><path data-cppathid="10013" d="M159.19,22.79a2.86,2.86,0,0,0,3.06,3.09,5.85,5.85,0,0,0,2.47-.46l.27,1.16a7.15,7.15,0,0,1-3,.55,4.14,4.14,0,0,1-4.39-4.49c0-2.69,1.59-4.81,4.18-4.81,2.92,0,3.69,2.56,3.69,4.2a5.82,5.82,0,0,1-.06.76Zm4.75-1.16A2.31,2.31,0,0,0,161.7,19a2.69,2.69,0,0,0-2.49,2.64Z"/><path data-cppathid="10014" d="M167.52,20.82c0-1.05,0-2-.08-2.78h1.42l.06,1.75H169a2.68,2.68,0,0,1,2.47-2,1.65,1.65,0,0,1,.46.06v1.53a2.22,2.22,0,0,0-2.73,2,5.48,5.48,0,0,0-.07.76V27h-1.6Z"/></g><g data-name="Xampp Logo" id="Xampp_Logo"><path data-cppathid="10015" d="M113,41.34h55a22.91,22.91,0,0,1,6.79.88c4.78,1.46,7.31,4.89,8.31,9.63a28.75,28.75,0,0,1,.51,5.71q0,19.29,0,38.57,0,35.13,0,70.26c0,3.27-.19,6.59-1.8,9.57-1.79,3.32-4.25,5.94-8,7.09a7.23,7.23,0,0,1-2.07.44c-1.59,0-3.14.4-4.72.4q-53.84,0-107.68,0a21.63,21.63,0,0,1-8.66-1.41,6.78,6.78,0,0,1-1.59-.8c-3.53-2.7-5.93-6.06-6.44-10.61a42.49,42.49,0,0,1-.25-4.91q0-54.66,0-109.32a20.39,20.39,0,0,1,.67-6.28c1.73-5.4,5.51-8.34,11.12-8.94a36.84,36.84,0,0,1,3.93-.23Zm.58,90.68a36.49,36.49,0,0,0,1.33,5.85c4,11.11,15.73,20.29,31.09,16.59a25.93,25.93,0,0,0,15.28-39,2,2,0,0,1-.15-2.23,44.89,44.89,0,0,0,3.68-12,35.81,35.81,0,0,0,0-12.56c-1.9-9.92-12-20.59-25.6-20.47a26,26,0,0,0-25,19.94c-.25,1.17-.44,2.35-.7,3.78-.17-.79-.33-1.32-.41-1.85-1.58-10.66-11.76-20.14-22.74-21.17A26.1,26.1,0,0,0,64.32,83.14a24.39,24.39,0,0,0-2.48,9.12A25.47,25.47,0,0,0,66,108.8a1.43,1.43,0,0,1,.09,1.65A37.5,37.5,0,0,0,62,123.87c-.46,4.42-.58,8.85.67,13.19a25.63,25.63,0,0,0,27.52,18.32c10.57-1.17,17.62-7,21.76-16.63A28,28,0,0,0,113.56,132Z" class="cls-2"/><path data-cppathid="10016" d="M113.56,132a28,28,0,0,1-1.57,6.73c-4.13,9.61-11.19,15.46-21.76,16.63a25.63,25.63,0,0,1-27.52-18.32c-1.25-4.34-1.13-8.77-.67-13.19a37.7,37.7,0,0,1,4.05-13.42A1.43,1.43,0,0,0,66,108.8a25.45,25.45,0,0,1-4.15-16.54,24.19,24.19,0,0,1,2.47-9.12A26.09,26.09,0,0,1,90.39,68.82c11,1,21.16,10.51,22.75,21.17.08.53.23,1.06.4,1.85.26-1.43.45-2.61.7-3.78a26,26,0,0,1,25-19.94c13.62-.12,23.7,10.55,25.6,20.47a35.81,35.81,0,0,1,0,12.56,44.89,44.89,0,0,1-3.68,12,2,2,0,0,0,.15,2.23,25.47,25.47,0,0,1,4.06,15A25.75,25.75,0,0,1,146,154.46c-15.35,3.7-27.12-5.48-31.09-16.59A36.49,36.49,0,0,1,113.56,132Zm27.9-19.86a4.46,4.46,0,0,1,1-1.5A25.11,25.11,0,0,0,147.9,93.4a8.59,8.59,0,0,0-17.14.63c0,.39,0,.77,0,1.15-.32,5-3.07,7.73-7.25,8-.76.06-1.52.12-2.28.13H105a23.68,23.68,0,0,0-7,1c-10.51,3.25-16.64,10.43-18.67,21.15a12.89,12.89,0,0,0-.07,6.5c1,3.12,2.85,5.44,6.14,6.22a8.4,8.4,0,0,0,8.75-2.76,9.45,9.45,0,0,0,2.12-6.05c.29-5.81,3.46-8.72,8.73-8.67,8.1.06,16.19,0,24.29,0,1.43,0,1.45,0,1.45,1.44,0,2.62-.06,5.25,0,7.87a8.57,8.57,0,0,0,8.29,8c4.51.12,8.52-3.21,8.81-7.55a83.85,83.85,0,0,0,0-11.32,7,7,0,0,0-4.44-6.19C142.8,112.63,142.13,112.41,141.46,112.16Zm-50.74-8.83c1.74,0,3.16,0,4.58,0,.71,0,1-.3,1-1,0-2.73.12-5.47-.06-8.19a8.61,8.61,0,0,0-14.69-5.54c-2.67,2.55-3,5.66-2.09,9.06a7,7,0,0,0,6.06,5.44A37.08,37.08,0,0,0,90.72,103.33Z" class="cls-3"/><path data-cppathid="10017" d="M141.46,112.16c.67.25,1.34.47,2,.76a7,7,0,0,1,4.44,6.2,83.7,83.7,0,0,1,0,11.31c-.29,4.35-4.3,7.67-8.8,7.55a8.58,8.58,0,0,1-8.3-8c-.1-2.62,0-5.25,0-7.87,0-1.42,0-1.44-1.45-1.44-8.1,0-16.19,0-24.29,0-5.27-.05-8.44,2.86-8.73,8.67a9.45,9.45,0,0,1-2.12,6.05,8.39,8.39,0,0,1-8.74,2.76c-3.3-.78-5.15-3.1-6.15-6.22a13,13,0,0,1,.07-6.5c2-10.71,8.16-17.9,18.67-21.15a23.68,23.68,0,0,1,7-1h16.25c.76,0,1.52-.07,2.29-.13,4.17-.3,6.92-3,7.24-8,0-.38,0-.76,0-1.14a8.59,8.59,0,0,1,17.14-.64,25.13,25.13,0,0,1-5.43,17.27A4.32,4.32,0,0,0,141.46,112.16Z" class="cls-2"/><path data-cppathid="10018" d="M90.72,103.33a37.08,37.08,0,0,1-5.24-.21,7,7,0,0,1-6.06-5.44c-.93-3.4-.58-6.52,2.09-9.06A8.61,8.61,0,0,1,96.2,94.16c.18,2.72,0,5.46.06,8.19,0,.69-.26,1-1,1C93.88,103.31,92.46,103.33,90.72,103.33Z" class="cls-2"/></g></g></g></g></svg>