<?xml version="1.0" encoding="UTF-8"?>
<svg xmlns="http://www.w3.org/2000/svg" onmouseup="{ if(window.parent.document.onmouseup) window.parent.document.onmouseup(arguments[0]);}" viewBox="0 0 226.04 226.04"><defs><style>
      .cls-1 {
        fill: #e5ed74;
      }

      .cls-2 {
        fill: #e2e2e2;
      }

      .cls-2, .cls-3 {
        stroke: #000;
        stroke-miterlimit: 10;
        stroke-width: 5px;
      }

      .cls-3 {
        fill: none;
      }
    </style></defs><g data-name="Ebene 2" id="Ebene_2"><g data-name="Warum Xampp" id="Warum_Xampp"><g><rect data-cppathid="10000" height="218.76" width="218.76" y="3.24" x="3.64" class="cls-1"/><rect data-cppathid="10001" height="221.04" width="221.04" y="2.5" x="2.5" class="cls-2"/><line data-cppathid="10002" y2="40.13" x2="223.54" y1="40.13" x1="2.5" class="cls-3"/><line data-cppathid="10003" y2="223.54" x2="55.59" y1="40.13" x1="55.59" class="cls-3"/><g><path data-cppathid="10004" d="M17,26,13.85,13.54h1.69L17,19.82c.36,1.54.69,3.09.92,4.29h0c.21-1.24.59-2.71,1-4.31l1.65-6.26h1.68l1.51,6.29c.35,1.48.68,3,.87,4.26h0c.26-1.36.61-2.75,1-4.29l1.64-6.26H29L25.49,26H23.81l-1.56-6.47a34.81,34.81,0,0,1-.81-4.05h0a38.19,38.19,0,0,1-1,4.05L18.67,26Z"/><path data-cppathid="10005" d="M38,21.42a4.36,4.36,0,0,1-4.44,4.73,4.24,4.24,0,0,1-4.27-4.58c0-3,1.95-4.74,4.42-4.74S38,18.69,38,21.42Zm-7.07.09c0,1.95,1.12,3.43,2.7,3.43s2.71-1.46,2.71-3.47c0-1.51-.75-3.42-2.67-3.42S30.89,19.82,30.89,21.51Z"/><path data-cppathid="10006" d="M40,19.82c0-1.05,0-2-.07-2.78h1.42l0,1.75h.08a2.67,2.67,0,0,1,2.47-2,1.65,1.65,0,0,1,.46.06v1.53a2.34,2.34,0,0,0-.56-.06,2.27,2.27,0,0,0-2.17,2.08,4.28,4.28,0,0,0-.07.76V26H40Z"/><path data-cppathid="10007" d="M53.54,12.87V23.65c0,.79,0,1.69.07,2.3H52.16l-.07-1.55h0a3.3,3.3,0,0,1-3,1.75c-2.15,0-3.81-1.82-3.81-4.53,0-3,1.82-4.79,4-4.79a3,3,0,0,1,2.69,1.37h0V12.87Zm-1.62,7.79a3.14,3.14,0,0,0-.07-.68,2.39,2.39,0,0,0-2.34-1.88c-1.68,0-2.67,1.48-2.67,3.45,0,1.8.88,3.29,2.63,3.29a2.43,2.43,0,0,0,2.38-1.93,3.08,3.08,0,0,0,.07-.7Z"/><path data-cppathid="10008" d="M56.29,13.68a18.33,18.33,0,0,1,3.07-.24,5.09,5.09,0,0,1,3.48,1,3.36,3.36,0,0,1,1.09,2.6,3.62,3.62,0,0,1-1,2.65,5.12,5.12,0,0,1-3.79,1.37A5.64,5.64,0,0,1,57.89,21v5h-1.6Zm1.6,6a5.44,5.44,0,0,0,1.32.13c1.94,0,3.12-.94,3.12-2.65s-1.16-2.44-2.93-2.44a6.89,6.89,0,0,0-1.51.13Z"/><path data-cppathid="10009" d="M65.74,19.82c0-1.05,0-2-.08-2.78h1.42l.06,1.75h.07a2.67,2.67,0,0,1,2.47-2,1.65,1.65,0,0,1,.46.06v1.53a2.22,2.22,0,0,0-2.73,2,5.48,5.48,0,0,0-.07.76V26h-1.6Z"/><path data-cppathid="10010" d="M72.48,21.79a2.85,2.85,0,0,0,3,3.09A5.78,5.78,0,0,0,78,24.42l.28,1.16a7.21,7.21,0,0,1-3,.55,4.14,4.14,0,0,1-4.38-4.49c0-2.69,1.59-4.81,4.18-4.81,2.91,0,3.69,2.56,3.69,4.2a5.82,5.82,0,0,1-.06.76Zm4.75-1.16A2.31,2.31,0,0,0,75,18a2.68,2.68,0,0,0-2.48,2.64Z"/><path data-cppathid="10011" d="M80.58,24.29a4.2,4.2,0,0,0,2.14.65c1.18,0,1.73-.59,1.73-1.33S84,22.41,82.79,22c-1.6-.57-2.35-1.45-2.35-2.52,0-1.44,1.16-2.62,3.07-2.62a4.48,4.48,0,0,1,2.19.55l-.4,1.18a3.51,3.51,0,0,0-1.83-.51c-1,0-1.49.55-1.49,1.21s.54,1.07,1.7,1.51c1.54.59,2.34,1.37,2.34,2.69,0,1.57-1.22,2.67-3.34,2.67a5.16,5.16,0,0,1-2.5-.6Z"/><path data-cppathid="10012" d="M87.88,24.29a4.16,4.16,0,0,0,2.13.65c1.18,0,1.73-.59,1.73-1.33s-.46-1.2-1.65-1.64c-1.6-.57-2.36-1.45-2.36-2.52,0-1.44,1.16-2.62,3.08-2.62a4.51,4.51,0,0,1,2.19.55l-.41,1.18a3.47,3.47,0,0,0-1.82-.51c-1,0-1.49.55-1.49,1.21s.53,1.07,1.69,1.51c1.55.59,2.34,1.37,2.34,2.69,0,1.57-1.22,2.67-3.33,2.67a5.2,5.2,0,0,1-2.51-.6Z"/><path data-cppathid="10013" d="M101.36,22,100.07,26H98.41l4.22-12.41h1.94L108.8,26h-1.71L105.76,22Zm4.07-1.25-1.22-3.57c-.27-.81-.46-1.55-.64-2.27h0c-.18.74-.38,1.5-.62,2.25l-1.22,3.59Z"/><path data-cppathid="10014" d="M118.05,12.87V23.65c0,.79,0,1.69.07,2.3h-1.45l-.08-1.55h0a3.3,3.3,0,0,1-3,1.75c-2.16,0-3.81-1.82-3.81-4.53,0-3,1.82-4.79,4-4.79a3,3,0,0,1,2.69,1.37h0V12.87Zm-1.62,7.79a2.63,2.63,0,0,0-.08-.68A2.38,2.38,0,0,0,114,18.1c-1.68,0-2.68,1.48-2.68,3.45,0,1.8.89,3.29,2.64,3.29a2.42,2.42,0,0,0,2.37-1.93,2.59,2.59,0,0,0,.08-.7Z"/><path data-cppathid="10015" d="M120.74,19.45c0-.92,0-1.68-.08-2.41h1.42l.08,1.43h0a3.08,3.08,0,0,1,2.8-1.64,2.62,2.62,0,0,1,2.52,1.79h0a3.61,3.61,0,0,1,1-1.16,3,3,0,0,1,2-.63c1.18,0,2.93.78,2.93,3.87V26h-1.59V20.9c0-1.71-.63-2.74-1.93-2.74A2.11,2.11,0,0,0,128,19.63a2.8,2.8,0,0,0-.13.81V26h-1.58V20.61c0-1.42-.63-2.45-1.86-2.45a2.22,2.22,0,0,0-2,1.62,2.26,2.26,0,0,0-.13.79V26h-1.58Z"/><path data-cppathid="10016" d="M137.91,14.53a1,1,0,0,1-2,0,1,1,0,0,1,1-1A1,1,0,0,1,137.91,14.53ZM136.1,26V17h1.62V26Z"/><path data-cppathid="10017" d="M140.41,19.45c0-.92,0-1.68-.07-2.41h1.43l.1,1.47h0a3.29,3.29,0,0,1,2.95-1.68c1.23,0,3.15.74,3.15,3.8V26h-1.62V20.81c0-1.44-.54-2.63-2.06-2.63a2.31,2.31,0,0,0-2.18,1.65,2.49,2.49,0,0,0-.11.76V26h-1.62Z"/><path data-cppathid="10018" d="M152.44,14.53a1,1,0,0,1-1,1,1,1,0,0,1-1-1,1,1,0,0,1,1-1A1,1,0,0,1,152.44,14.53ZM150.63,26V17h1.62V26Z"/><path data-cppathid="10019" d="M154.72,24.29a4.2,4.2,0,0,0,2.14.65c1.18,0,1.73-.59,1.73-1.33s-.46-1.2-1.66-1.64c-1.6-.57-2.35-1.45-2.35-2.52,0-1.44,1.16-2.62,3.07-2.62a4.48,4.48,0,0,1,2.19.55l-.4,1.18a3.51,3.51,0,0,0-1.83-.51c-1,0-1.49.55-1.49,1.21s.54,1.07,1.7,1.51c1.54.59,2.34,1.37,2.34,2.69,0,1.57-1.22,2.67-3.34,2.67a5.19,5.19,0,0,1-2.5-.6Z"/><path data-cppathid="10020" d="M164.19,14.47V17h2.32v1.23h-2.32v4.81c0,1.1.31,1.73,1.22,1.73a3.94,3.94,0,0,0,.94-.11l.07,1.21a3.94,3.94,0,0,1-1.44.22,2.27,2.27,0,0,1-1.75-.68,3.31,3.31,0,0,1-.62-2.32V18.27h-1.38V17h1.38V14.9Z"/><path data-cppathid="10021" d="M168.34,19.82c0-1.05,0-2-.08-2.78h1.42l.06,1.75h.07a2.67,2.67,0,0,1,2.47-2,1.65,1.65,0,0,1,.46.06v1.53a2.22,2.22,0,0,0-2.73,2,4.28,4.28,0,0,0-.07.76V26h-1.6Z"/><path data-cppathid="10022" d="M179.2,26l-.13-1.12h0a3.33,3.33,0,0,1-2.73,1.32,2.54,2.54,0,0,1-2.72-2.56c0-2.15,1.91-3.33,5.36-3.31v-.19a1.84,1.84,0,0,0-2-2.06,4.49,4.49,0,0,0-2.32.66l-.37-1.07a5.64,5.64,0,0,1,2.93-.79c2.73,0,3.39,1.86,3.39,3.65v3.33a12.6,12.6,0,0,0,.15,2.14ZM179,21.4c-1.76,0-3.77.28-3.77,2A1.44,1.44,0,0,0,176.72,25a2.21,2.21,0,0,0,2.15-1.5A1.52,1.52,0,0,0,179,23Z"/><path data-cppathid="10023" d="M185,14.47V17h2.32v1.23H185v4.81c0,1.1.32,1.73,1.22,1.73a3.87,3.87,0,0,0,.94-.11l.07,1.21a3.92,3.92,0,0,1-1.43.22,2.24,2.24,0,0,1-1.75-.68,3.3,3.3,0,0,1-.63-2.32V18.27h-1.38V17h1.38V14.9Z"/><path data-cppathid="10024" d="M191,14.53a1,1,0,0,1-1,1,1,1,0,0,1-1-1,1,1,0,0,1,1-1A1,1,0,0,1,191,14.53ZM189.17,26V17h1.62V26Z"/><path data-cppathid="10025" d="M201.54,21.42a4.35,4.35,0,0,1-4.43,4.73,4.24,4.24,0,0,1-4.28-4.58c0-3,2-4.74,4.42-4.74S201.54,18.69,201.54,21.42Zm-7.07.09c0,1.95,1.13,3.43,2.71,3.43s2.71-1.46,2.71-3.47c0-1.51-.76-3.42-2.67-3.42S194.47,19.82,194.47,21.51Z"/><path data-cppathid="10026" d="M203.59,19.45c0-.92,0-1.68-.07-2.41H205l.1,1.47h0A3.28,3.28,0,0,1,208,16.83c1.23,0,3.15.74,3.15,3.8V26h-1.62V20.81c0-1.44-.54-2.63-2.07-2.63a2.31,2.31,0,0,0-2.17,1.65,2.49,2.49,0,0,0-.11.76V26h-1.62Z"/></g></g></g></g></svg>