<?xml version="1.0" encoding="UTF-8"?>
<svg xmlns="http://www.w3.org/2000/svg" onmouseup="{ if(window.parent.document.onmouseup) window.parent.document.onmouseup(arguments[0]);}" viewBox="0 0 226.04 226.04"><defs><style>
      .cls-1 {
        fill: #e5ed74;
      }

      .cls-2 {
        fill: #fff;
        stroke-width: 5px;
      }

      .cls-2, .cls-3 {
        stroke: #000;
        stroke-miterlimit: 10;
      }

      .cls-3 {
        fill: none;
      }
    </style></defs><g data-name="Ebene 2" id="Ebene_2"><g data-name="Warum Xampp" id="Warum_Xampp"><g><rect data-cppathid="10000" height="217.38" width="217.38" y="4.27" x="4.27" class="cls-1" id="Color"/><rect data-cppathid="10001" height="221.04" width="221.04" y="2.5" x="2.5" class="cls-2" id="Hintergrund"/><g id="Linien"><line data-cppathid="10002" y2="50.39" x2="223.54" y1="50.39" x1="2.5" class="cls-3"/><line data-cppathid="10003" y2="93.86" x2="223.54" y1="93.86" x1="2.5" class="cls-3"/><line data-cppathid="10004" y2="138.07" x2="223.54" y1="138.07" x1="2.5" class="cls-3"/><line data-cppathid="10005" y2="183.02" x2="223.54" y1="183.02" x1="2.5" class="cls-3"/><line data-cppathid="10006" y2="223.54" x2="45.19" y1="2.5" x1="45.19" class="cls-3"/><line data-cppathid="10007" y2="223.54" x2="90.35" y1="2.5" x1="90.35" class="cls-3"/><line data-cppathid="10008" y2="223.54" x2="135.92" y1="2.5" x1="135.92" class="cls-3"/><line data-cppathid="10009" y2="223.54" x2="179.47" y1="2.5" x1="179.47" class="cls-3"/><line data-cppathid="10010" y2="27.18" x2="223.54" y1="27.18" x1="2.5" class="cls-3"/><line data-cppathid="10011" y2="71.39" x2="223.54" y1="71.39" x1="2.5" class="cls-3"/><line data-cppathid="10012" y2="113.02" x2="223.54" y1="113.02" x1="2.5" class="cls-3"/><line data-cppathid="10013" y2="158.7" x2="223.54" y1="158.7" x1="2.5" class="cls-3"/><line data-cppathid="10014" y2="203.28" x2="223.54" y1="203.28" x1="2.5" class="cls-3"/></g><g><path data-cppathid="10015" d="M82.12,111.09c-.14-3-.32-6.72-.28-9.9h-.11c-.77,2.87-1.75,6-2.8,9L75.5,120.44H72.18L69,110.36c-.91-3-1.75-6.23-2.38-9.17h-.07c-.11,3.08-.25,6.82-.42,10l-.53,9.49h-4l1.57-23.59h5.67l3.08,9.48c.84,2.77,1.58,5.57,2.17,8.19h.11c.63-2.55,1.43-5.46,2.34-8.22l3.26-9.45h5.6l1.36,23.59h-4.2Z"/><path data-cppathid="10016" d="M93.77,103.67l3.08,9.14c.35,1,.7,2.35,1,3.32h.1c.28-1,.6-2.24.91-3.35l2.66-9.11h4.62l-4.27,11.62c-2.34,6.38-3.92,9.21-5.95,11a8.64,8.64,0,0,1-4.51,2.21l-1-3.64a7.71,7.71,0,0,0,4.86-3.89,1.65,1.65,0,0,0,.28-.77,1.81,1.81,0,0,0-.24-.84l-6.23-15.65Z"/><path data-cppathid="10017" d="M108.65,116a11.86,11.86,0,0,0,5.7,1.51c2.77,0,4.31-1.3,4.31-3.23s-1.19-2.83-4.2-3.92c-3.89-1.4-6.37-3.46-6.37-6.86,0-3.85,3.22-6.79,8.33-6.79a12.49,12.49,0,0,1,5.67,1.19l-1,3.47a9.94,9.94,0,0,0-4.69-1.12c-2.73,0-3.92,1.47-3.92,2.83,0,1.82,1.36,2.66,4.51,3.89,4.1,1.54,6.09,3.6,6.09,7,0,3.78-2.87,7.07-9,7.07a14,14,0,0,1-6.37-1.47Z"/><path data-cppathid="10018" d="M146.76,124.5a95.36,95.36,0,0,1-9.2-3,5.8,5.8,0,0,0-1.54-.35c-5.46-.28-10.33-4.31-10.33-12,0-7.28,4.52-12.39,11.27-12.39s10.89,5.25,10.89,11.9c0,5.71-2.63,9.53-6.09,10.89v.14c2,.56,4.3,1,6.23,1.44Zm-3.46-15.65c0-4.51-2.21-8.64-6.48-8.64s-6.61,4.09-6.58,8.82,2.38,8.61,6.51,8.61S143.3,113.79,143.3,108.85Z"/><path data-cppathid="10019" d="M151.56,97.13h4.3v20h9.7v3.6h-14Z"/></g></g></g></g></svg>