<?xml version="1.0" encoding="UTF-8"?>
<svg xmlns="http://www.w3.org/2000/svg" onmouseup="{ if(window.parent.document.onmouseup) window.parent.document.onmouseup(arguments[0]);}" viewBox="0 0 226.04 226.04"><defs><style>
      .cls-1 {
        fill: #e2e2e2;
        stroke-width: 5px;
      }

      .cls-1, .cls-2 {
        stroke: #000;
        stroke-miterlimit: 10;
      }

      .cls-2 {
        fill: #6ddde2;
      }
    </style></defs><g data-name="Ebene 2" id="Ebene_2"><g data-name="Warum Xampp" id="Warum_Xampp"><g><g data-name="Website Gr端n" id="Website_Gr端n"><rect data-cppathid="10000" height="221.04" width="221.04" y="2.5" x="2.5" class="cls-1" id="Hintergrund"/><g data-name="Website Farben gr端n" id="Website_Farben_gr端n"><rect data-cppathid="10001" height="30.95" width="54" y="120.39" x="19.47" class="cls-2"/><rect data-cppathid="10002" height="30.95" width="54" y="120.39" x="86.73" class="cls-2"/><rect data-cppathid="10003" height="30.95" width="54" y="120.39" x="153.05" class="cls-2"/><rect data-cppathid="10004" rx="12.71" height="25.42" width="68.52" y="177.86" x="78.76" class="cls-2"/><rect data-cppathid="10005" height="61.89" width="216.62" y="32.34" x="4.49" class="cls-2"/></g></g><g><path data-cppathid="10006" d="M13.91,15.35h.77v5.31h2.54v.64H13.91Z"/><path data-cppathid="10007" d="M22.83,18.26c0,2-1.25,3.14-2.77,3.14a2.73,2.73,0,0,1-2.68-3,2.83,2.83,0,0,1,2.77-3.13A2.71,2.71,0,0,1,22.83,18.26Zm-4.62.1c0,1.27.68,2.41,1.9,2.41S22,19.65,22,18.3c0-1.19-.61-2.42-1.9-2.42S18.21,17.05,18.21,18.36Z"/><path data-cppathid="10008" d="M28.36,21a5.58,5.58,0,0,1-1.83.33,2.8,2.8,0,0,1-3.05-3,3,3,0,0,1,3.22-3.07,3.81,3.81,0,0,1,1.49.27l-.19.63a3.13,3.13,0,0,0-1.32-.26,2.22,2.22,0,0,0-2.39,2.4,2.18,2.18,0,0,0,2.3,2.4,2.47,2.47,0,0,0,1-.16V18.79H26.4v-.61h2Z"/><path data-cppathid="10009" d="M34.63,18.26c0,2-1.24,3.14-2.76,3.14a2.73,2.73,0,0,1-2.68-3A2.83,2.83,0,0,1,32,15.25,2.71,2.71,0,0,1,34.63,18.26Zm-4.62.1c0,1.27.69,2.41,1.9,2.41s1.91-1.12,1.91-2.47c0-1.19-.62-2.42-1.9-2.42S30,17.05,30,18.36Z"/></g><g><path data-cppathid="10010" d="M113,15.57v2.49h2.88V15.57h.78v6h-.78V18.74H113v2.79h-.77v-6Z"/><path data-cppathid="10011" d="M121.8,19.35a2.08,2.08,0,0,1-2.13,2.27,2,2,0,0,1-2-2.2,2.09,2.09,0,0,1,2.12-2.27A2,2,0,0,1,121.8,19.35Zm-3.39,0c0,.93.54,1.64,1.3,1.64s1.3-.7,1.3-1.66c0-.72-.37-1.64-1.28-1.64S118.41,18.59,118.41,19.4Z"/><path data-cppathid="10012" d="M122.79,18.41c0-.44,0-.81,0-1.16h.68l0,.69h0a1.48,1.48,0,0,1,1.35-.79,1.28,1.28,0,0,1,1.21.86h0a1.91,1.91,0,0,1,.48-.56,1.5,1.5,0,0,1,.95-.3c.56,0,1.4.37,1.4,1.86v2.52h-.76V19.11c0-.83-.3-1.32-.93-1.32a1,1,0,0,0-.91.71,1.09,1.09,0,0,0-.07.39v2.64h-.76V19c0-.69-.3-1.18-.89-1.18a1.05,1.05,0,0,0-1,.78.92.92,0,0,0-.06.38v2.58h-.76Z"/><path data-cppathid="10013" d="M130.59,19.53A1.38,1.38,0,0,0,132.06,21a2.66,2.66,0,0,0,1.18-.23l.14.56a3.58,3.58,0,0,1-1.43.27,2,2,0,0,1-2.1-2.16,2.08,2.08,0,0,1,2-2.31,1.81,1.81,0,0,1,1.76,2,2.93,2.93,0,0,1,0,.36Zm2.28-.56a1.1,1.1,0,0,0-1.08-1.26A1.29,1.29,0,0,0,130.6,19Z"/></g><g><path data-cppathid="10014" d="M145.56,16.18V19.7c0,1.34.59,1.9,1.39,1.9s1.45-.58,1.45-1.9V16.18h.78v3.47c0,1.83-1,2.58-2.26,2.58s-2.14-.7-2.14-2.54V16.18Zm.19-.87a.44.44,0,0,1,.44-.44.42.42,0,0,1,.42.44.43.43,0,1,1-.86,0Zm1.64,0a.44.44,0,0,1,.43-.44.45.45,0,1,1-.43.44Z"/><path data-cppathid="10015" d="M150.45,22.13c0-.29,0-.72,0-1.1V15.86h.76v2.69h0a1.6,1.6,0,0,1,1.46-.79c1.06,0,1.81.88,1.8,2.18a2,2,0,0,1-1.91,2.29,1.54,1.54,0,0,1-1.44-.8h0l0,.7Zm.8-1.71a1.26,1.26,0,0,0,0,.28,1.2,1.2,0,0,0,1.17.91c.81,0,1.3-.66,1.3-1.64s-.45-1.59-1.28-1.59a1.23,1.23,0,0,0-1.18.95,1.43,1.43,0,0,0-.05.32Z"/><path data-cppathid="10016" d="M156,20.14a1.37,1.37,0,0,0,1.47,1.48,2.87,2.87,0,0,0,1.18-.22l.13.56a3.52,3.52,0,0,1-1.42.26,2,2,0,0,1-2.1-2.15,2.08,2.08,0,0,1,2-2.31,1.81,1.81,0,0,1,1.77,2,2.73,2.73,0,0,1,0,.37Zm2.28-.56a1.1,1.1,0,0,0-1.08-1.26A1.29,1.29,0,0,0,156,19.58Z"/><path data-cppathid="10017" d="M160,19.19c0-.5,0-.94,0-1.33h.68l0,.84h0a1.29,1.29,0,0,1,1.19-.94.73.73,0,0,1,.22,0v.73a1.06,1.06,0,0,0-.27,0,1.1,1.1,0,0,0-1,1,2,2,0,0,0,0,.36v2.28H160Z"/><path data-cppathid="10018" d="M168.29,21c0,.44,0,.83,0,1.16h-.69l0-.69h0a1.64,1.64,0,0,1-1.42.79c-.67,0-1.47-.37-1.47-1.87v-2.5h.77v2.36c0,.82.25,1.37,1,1.37a1.13,1.13,0,0,0,1-.71,1.05,1.05,0,0,0,.07-.4V17.86h.78Z"/><path data-cppathid="10019" d="M169.58,19c0-.44,0-.8,0-1.15h.69l0,.7h0a1.58,1.58,0,0,1,1.41-.8c.6,0,1.51.35,1.51,1.82v2.55h-.77V19.67c0-.69-.26-1.27-1-1.27a1.12,1.12,0,0,0-1.05.8,1.3,1.3,0,0,0,0,.36v2.57h-.78Z"/><path data-cppathid="10020" d="M174.38,21.34a2.06,2.06,0,0,0,1,.31c.57,0,.83-.29.83-.64s-.22-.57-.79-.79c-.77-.27-1.14-.69-1.14-1.21a1.32,1.32,0,0,1,1.48-1.25,2.16,2.16,0,0,1,1.05.26l-.19.57a1.65,1.65,0,0,0-.88-.25c-.46,0-.71.27-.71.59s.25.51.81.72c.74.28,1.12.65,1.12,1.29s-.58,1.28-1.6,1.28a2.39,2.39,0,0,1-1.2-.29Z"/></g><g><path data-cppathid="10021" d="M185,16.71h.77v2.87h0c.15-.23.31-.44.46-.63l1.82-2.24h1l-2.16,2.53,2.33,3.43h-.91l-2-2.93-.56.66v2.27H185Z"/><path data-cppathid="10022" d="M193.64,20.49a2.09,2.09,0,0,1-2.13,2.27,2,2,0,0,1-2-2.2,2.08,2.08,0,0,1,2.12-2.27A2,2,0,0,1,193.64,20.49Zm-3.4.05c0,.93.54,1.64,1.3,1.64s1.3-.7,1.3-1.66c0-.72-.36-1.64-1.28-1.64S190.24,19.72,190.24,20.54Z"/><path data-cppathid="10023" d="M194.62,19.55c0-.44,0-.81,0-1.16h.69l0,.71h0a1.56,1.56,0,0,1,1.41-.81c.59,0,1.51.36,1.51,1.82v2.56h-.78V20.2c0-.69-.25-1.26-1-1.26a1.1,1.1,0,0,0-1,.79,1.32,1.32,0,0,0,0,.37v2.57h-.78Z"/><path data-cppathid="10024" d="M200.43,17.16v1.23h1.11V19h-1.11v2.31c0,.53.15.83.58.83a2.16,2.16,0,0,0,.45-.05l0,.58a1.94,1.94,0,0,1-.69.11,1.08,1.08,0,0,1-.84-.33,1.59,1.59,0,0,1-.3-1.11V19H199v-.59h.66v-1Z"/><path data-cppathid="10025" d="M204.79,22.67l-.07-.54h0a1.61,1.61,0,0,1-1.31.63,1.22,1.22,0,0,1-1.31-1.22c0-1,.92-1.6,2.57-1.59v-.09a.88.88,0,0,0-1-1,2.06,2.06,0,0,0-1.11.32l-.18-.52a2.66,2.66,0,0,1,1.41-.38c1.3,0,1.62.9,1.62,1.75v1.6a6.41,6.41,0,0,0,.07,1Zm-.12-2.19c-.85,0-1.81.14-1.81,1a.69.69,0,0,0,.73.74,1.07,1.07,0,0,0,1-.72.93.93,0,0,0,0-.24Z"/><path data-cppathid="10026" d="M207.45,20.35h0a5.31,5.31,0,0,1,.38-.48l1.25-1.48H210l-1.65,1.76,1.88,2.52h-1l-1.47-2.05-.4.44v1.61h-.77V16.39h.77Z"/><path data-cppathid="10027" d="M211.76,17.16v1.23h1.12V19h-1.12v2.31c0,.53.15.83.59.83a2.16,2.16,0,0,0,.45-.05l0,.58a1.94,1.94,0,0,1-.69.11,1.1,1.1,0,0,1-.84-.33,1.59,1.59,0,0,1-.3-1.11V19h-.66v-.59H211v-1Z"/></g><g><path data-cppathid="10028" d="M49.48,67,46.34,54.54H48l1.47,6.28c.37,1.54.7,3.09.92,4.29h0c.2-1.24.59-2.71,1-4.31l1.66-6.26h1.68l1.51,6.29c.35,1.48.68,3,.86,4.26h0c.26-1.36.61-2.75,1-4.29l1.64-6.26h1.64L58,67H56.3l-1.57-6.47a39.58,39.58,0,0,1-.81-4h0a38.19,38.19,0,0,1-1,4L51.16,67Z"/><path data-cppathid="10029" d="M70.45,62.42A4.36,4.36,0,0,1,66,67.15a4.24,4.24,0,0,1-4.28-4.58c0-3,2-4.74,4.42-4.74S70.45,59.69,70.45,62.42Zm-7.08.09c0,1.95,1.13,3.43,2.71,3.43s2.71-1.46,2.71-3.47c0-1.51-.76-3.42-2.67-3.42S63.37,60.82,63.37,62.51Z"/><path data-cppathid="10030" d="M72.49,60.82c0-1,0-2-.07-2.78h1.42l0,1.75H74a2.69,2.69,0,0,1,2.47-2,1.56,1.56,0,0,1,.46.06v1.53a2.2,2.2,0,0,0-.55-.06,2.27,2.27,0,0,0-2.17,2.08,4.22,4.22,0,0,0-.08.76V67h-1.6Z"/><path data-cppathid="10031" d="M86,53.87V64.65c0,.79,0,1.69.07,2.3H84.65l-.08-1.55h0a3.3,3.3,0,0,1-3,1.75c-2.16,0-3.81-1.82-3.81-4.53,0-3,1.82-4.79,4-4.79a3,3,0,0,1,2.69,1.37h0V53.87Zm-1.62,7.79a2.63,2.63,0,0,0-.08-.68A2.37,2.37,0,0,0,82,59.1c-1.68,0-2.68,1.48-2.68,3.45,0,1.8.89,3.29,2.64,3.29a2.42,2.42,0,0,0,2.37-1.93,2.59,2.59,0,0,0,.08-.7Z"/><path data-cppathid="10032" d="M88.77,54.68a18.56,18.56,0,0,1,3.08-.24,5.13,5.13,0,0,1,3.48,1,3.36,3.36,0,0,1,1.09,2.6,3.62,3.62,0,0,1-1,2.65,5.12,5.12,0,0,1-3.79,1.37A5.59,5.59,0,0,1,90.38,62v5H88.77Zm1.61,6a5.44,5.44,0,0,0,1.32.13c1.94,0,3.11-.94,3.11-2.65s-1.16-2.44-2.92-2.44a6.89,6.89,0,0,0-1.51.13Z"/><path data-cppathid="10033" d="M98.23,60.82c0-1,0-2-.08-2.78h1.42l.05,1.75h.08a2.67,2.67,0,0,1,2.47-2,1.65,1.65,0,0,1,.46.06v1.53a2.22,2.22,0,0,0-2.73,2,4.28,4.28,0,0,0-.07.76V67h-1.6Z"/><path data-cppathid="10034" d="M105,62.79a2.85,2.85,0,0,0,3,3.09,5.85,5.85,0,0,0,2.47-.46l.28,1.16a7.21,7.21,0,0,1-3,.55,4.14,4.14,0,0,1-4.38-4.49c0-2.69,1.58-4.81,4.18-4.81,2.91,0,3.68,2.56,3.68,4.2a6.2,6.2,0,0,1,0,.76Zm4.75-1.16A2.32,2.32,0,0,0,107.47,59,2.69,2.69,0,0,0,105,61.63Z"/><path data-cppathid="10035" d="M113.07,65.29a4.2,4.2,0,0,0,2.14.65c1.18,0,1.73-.59,1.73-1.33s-.46-1.2-1.66-1.64c-1.6-.57-2.36-1.45-2.36-2.52,0-1.44,1.16-2.62,3.08-2.62a4.51,4.51,0,0,1,2.19.55l-.4,1.18a3.51,3.51,0,0,0-1.83-.51c-.95,0-1.49.55-1.49,1.21s.54,1.07,1.7,1.51c1.54.59,2.33,1.37,2.33,2.69,0,1.57-1.21,2.67-3.33,2.67a5.13,5.13,0,0,1-2.5-.6Z"/><path data-cppathid="10036" d="M120.36,65.29a4.2,4.2,0,0,0,2.14.65c1.18,0,1.73-.59,1.73-1.33s-.46-1.2-1.65-1.64c-1.61-.57-2.36-1.45-2.36-2.52,0-1.44,1.16-2.62,3.07-2.62a4.45,4.45,0,0,1,2.19.55l-.4,1.18a3.47,3.47,0,0,0-1.82-.51c-1,0-1.49.55-1.49,1.21s.53,1.07,1.69,1.51c1.55.59,2.34,1.37,2.34,2.69,0,1.57-1.22,2.67-3.34,2.67a5.19,5.19,0,0,1-2.5-.6Z"/><path data-cppathid="10037" d="M133.44,55.9h-3.77V54.54h9.19V55.9h-3.8V67h-1.62Z"/><path data-cppathid="10038" d="M140.06,53.87h1.62v5.57h0a3.05,3.05,0,0,1,1.16-1.15,3.41,3.41,0,0,1,1.66-.46c1.2,0,3.11.74,3.11,3.81V67H146V61.83c0-1.44-.53-2.65-2.06-2.65a2.31,2.31,0,0,0-2.17,1.62,1.82,1.82,0,0,0-.11.77V67h-1.62Z"/><path data-cppathid="10039" d="M151.18,62.79a2.86,2.86,0,0,0,3.06,3.09,5.85,5.85,0,0,0,2.47-.46l.27,1.16a7.15,7.15,0,0,1-3,.55,4.14,4.14,0,0,1-4.39-4.49c0-2.69,1.59-4.81,4.18-4.81,2.92,0,3.69,2.56,3.69,4.2a5.82,5.82,0,0,1-.06.76Zm4.75-1.16A2.31,2.31,0,0,0,153.69,59a2.69,2.69,0,0,0-2.49,2.64Z"/><path data-cppathid="10040" d="M159.51,60.45c0-.92,0-1.68-.08-2.41h1.42l.08,1.43h0a3.08,3.08,0,0,1,2.8-1.64,2.62,2.62,0,0,1,2.52,1.79h0a3.71,3.71,0,0,1,1-1.16,3,3,0,0,1,2-.63c1.17,0,2.92.78,2.92,3.87V67h-1.58V61.9c0-1.71-.63-2.74-1.93-2.74a2.1,2.1,0,0,0-1.92,1.47,2.8,2.8,0,0,0-.13.81V67h-1.58V61.61c0-1.42-.63-2.45-1.86-2.45a2.21,2.21,0,0,0-2,1.62,2.26,2.26,0,0,0-.13.79V67h-1.58Z"/><path data-cppathid="10041" d="M175.77,62.79a2.86,2.86,0,0,0,3.06,3.09,5.85,5.85,0,0,0,2.47-.46l.27,1.16a7.15,7.15,0,0,1-3,.55,4.13,4.13,0,0,1-4.38-4.49c0-2.69,1.58-4.81,4.18-4.81,2.91,0,3.68,2.56,3.68,4.2a5.82,5.82,0,0,1-.06.76Zm4.75-1.16A2.31,2.31,0,0,0,178.28,59a2.69,2.69,0,0,0-2.49,2.64Z"/></g></g></g></g></svg>